<?xml version="1.0" encoding="UTF-8" standalone="no"?>
<!-- Created with Inkscape (http://www.inkscape.org/) -->

<svg
   width="1000"
   height="1000"
   viewBox="0 0 1000 1000"
   version="1.1"
   id="svg1"
   xmlns="http://www.w3.org/2000/svg"
   xmlns:svg="http://www.w3.org/2000/svg">
   <defs
      id="defs1" />
   <g
      id="layer4"
      transform="translate(-1043.9412)">
      <g
         id="g47">
         <path
            d="M 1143.8376,867.65875 V 762.89313 h 38.6719 l 13.3594,40.78125 q 1.0547,3.58593 2.3906,9.35156 1.4063,5.76562 2.8125,12.44531 1.4063,6.67969 2.6719,12.9375 1.1953,-6.25781 2.5312,-12.86719 1.4063,-6.67968 2.7422,-12.44531 1.4063,-5.83594 2.461,-9.42187 l 13.1484,-40.78125 h 38.7422 v 104.76562 h -24.9609 v -45.14062 q 0,-4.00782 0.1406,-10.47657 0.2109,-6.53906 0.4219,-14.13281 0.2109,-7.59375 0.3515,-14.625 -1.7578,7.45313 -3.7265,14.97656 -1.8985,7.52344 -3.6563,13.92188 -1.7578,6.32812 -3.0234,10.33594 l -14.9063,45.14062 h -20.7422 l -15.1172,-45.14062 q -1.1953,-3.86719 -2.9531,-9.98438 -1.7578,-6.11719 -3.7265,-13.35937 -1.8985,-7.3125 -3.6563,-14.69532 0.1406,6.89063 0.3516,14.20313 0.2109,7.3125 0.3515,13.64062 0.211,6.25782 0.211,10.19532 v 45.14062 z m 132.9783,0 V 762.89313 h 72.7031 v 20.25 h -47.8828 v 21.65625 h 44.086 v 19.82812 h -44.086 v 22.78125 h 47.8125 v 20.25 z m 84.9548,0 V 762.89313 h 38.6719 l 13.3594,40.78125 q 1.0546,3.58593 2.3906,9.35156 1.4062,5.76562 2.8125,12.44531 1.4062,6.67969 2.6719,12.9375 1.1953,-6.25781 2.5312,-12.86719 1.4063,-6.67968 2.7422,-12.44531 1.4062,-5.83594 2.4609,-9.42187 l 13.1485,-40.78125 h 38.7422 v 104.76562 h -24.961 v -45.14062 q 0,-4.00782 0.1406,-10.47657 0.211,-6.53906 0.4219,-14.13281 0.211,-7.59375 0.3516,-14.625 -1.7578,7.45313 -3.7266,14.97656 -1.8984,7.52344 -3.6562,13.92188 -1.7578,6.32812 -3.0235,10.33594 l -14.9062,45.14062 h -20.7422 l -15.1172,-45.14062 q -1.1953,-3.86719 -2.9531,-9.98438 -1.7578,-6.11719 -3.7266,-13.35937 -1.8984,-7.3125 -3.6562,-14.69532 0.1406,6.89063 0.3515,14.20313 0.211,7.3125 0.3516,13.64062 0.2109,6.25782 0.2109,10.19532 v 45.14062 z m 180.1579,1.40625 q -14.1328,0 -25.3828,-6.25781 -11.1797,-6.25781 -17.7187,-18.21094 -6.4688,-12.02344 -6.4688,-29.25 0,-17.29687 6.5391,-29.32031 6.6094,-12.02344 17.8594,-18.28125 11.25,-6.25781 25.1718,-6.25781 12.4454,0 22.3594,4.5 9.9141,4.5 16.1719,13.07812 6.2578,8.57813 7.7344,20.8125 h -25.1016 q -1.1953,-7.66406 -6.6797,-12.09375 -5.414,-4.5 -13.8515,-4.5 -11.5313,0 -18.211,8.4375 -6.6094,8.36719 -6.6094,23.625 0,15.75 6.6797,23.83594 6.6797,8.08594 18,8.08594 8.4375,0 13.9219,-4.42969 5.4844,-4.5 6.8203,-12.16406 h 25.1016 q -0.7031,7.03125 -4.0781,13.85156 -3.3047,6.82031 -9.1407,12.375 -5.8359,5.55469 -14.1328,8.85937 -8.2969,3.30469 -18.9844,3.30469 z m 57.0408,-1.40625 V 762.89313 h 24.8203 v 41.13281 h 41.8359 v -41.13281 h 24.75 v 104.76562 h -24.75 v -43.38281 h -41.8359 v 43.38281 z m 100.072,0 34.9453,-104.76562 h 33.2578 l 36,104.76562 h -27.8437 l -7.1016,-22.28906 h -34.875 l -6.8203,22.28906 z m 40.2187,-41.27344 h 22.9922 l -1.4062,-4.5 q -2.7422,-9 -5.3438,-18.84375 -2.6015,-9.84375 -5.1328,-20.39062 -2.3906,10.61719 -4.7812,20.46094 -2.3204,9.84375 -4.9219,18.77343 z m 97.4002,-63.49218 V 867.65875 H 1811.84 V 762.89313 Z m 13.447,104.76562 V 762.89313 h 27.2812 l 29.25,47.32031 q 3.5157,5.83594 6.8204,12.16406 3.3046,6.32813 6.6093,14.90625 -0.5625,-7.875 -1.0547,-16.10156 -0.4218,-8.22656 -0.4218,-13.71094 v -44.57812 h 25.4531 v 104.76562 h -27.3516 l -26.789,-43.38281 q -3.0938,-5.0625 -5.625,-9.63281 -2.461,-4.57032 -4.9219,-9.5625 -2.3906,-4.99219 -5.3438,-11.25 0.6329,9.28125 1.0547,17.4375 0.4922,8.08593 0.4922,13.00781 v 43.38281 z"
            id="text37"
            style="font-weight:800;font-size:144px;font-family:Inter;-inkscape-font-specification:'Inter, Ultra-Bold';letter-spacing:-2.8655px;fill:#009ede;stroke:#009ede;stroke-width:0;stroke-linecap:round;stroke-linejoin:round;paint-order:stroke markers fill"
            aria-label="MEMCHAIN" />
      </g>
      <g
         id="g46"
         transform="translate(1043.9412,-64.064972)">
         <path
            style="fill:#004455;stroke:#009ede;stroke-width:0;stroke-linecap:round;stroke-linejoin:round;paint-order:stroke markers fill"
            d="m 259.80762,330 51.96152,30 v 270 l -51.96152,-30 z"
            id="path37" />
         <path
            style="fill:#004455;stroke:#009ede;stroke-width:0;stroke-linecap:round;stroke-linejoin:round;paint-order:stroke markers fill"
            d="m 415.6922,420 51.96152,30 V 720 L 415.6922,690 Z"
            id="path38" />
         <path
            style="fill:#004455;stroke:#009ede;stroke-width:0;stroke-linecap:round;stroke-linejoin:round;paint-order:stroke markers fill"
            d="m 337.74991,375 51.96152,30 v 210 l -51.96152,-30 z"
            id="path39" />
         <path
            style="fill:#004455;stroke:#009ede;stroke-width:0;stroke-linecap:round;stroke-linejoin:round;paint-order:stroke markers fill"
            d="m 571.57676,420 -51.96152,30 10e-6,270 51.96152,-30 z"
            id="path40" />
         <path
            style="fill:#004455;stroke:#009ede;stroke-width:0;stroke-linecap:round;stroke-linejoin:round;paint-order:stroke markers fill"
            d="m 727.46133,330 -51.96152,30 v 270 l 51.96153,-30 z"
            id="path41" />
         <path
            style="fill:#004455;stroke:#009ede;stroke-width:0;stroke-linecap:round;stroke-linejoin:round;paint-order:stroke markers fill"
            d="m 649.51905,375 -51.96152,30 v 210 l 51.96152,-30 z"
            id="path42" />
         <path
            style="fill:#009ede;stroke:#009ede;stroke-width:0;stroke-linecap:round;stroke-linejoin:round;paint-order:stroke markers fill"
            d="m 519.61524,360 51.96152,30 129.90382,-75 -51.96152,-30 z"
            id="path43" />
         <path
            style="fill:#009ede;stroke:#009ede;stroke-width:0;stroke-linecap:round;stroke-linejoin:round;paint-order:stroke markers fill"
            d="m 441.67296,315 51.96152,30 129.90381,-75 -51.96152,-30 z"
            id="path44" />
         <path
            style="fill:#009ede;stroke:#009ede;stroke-width:0;stroke-linecap:round;stroke-linejoin:round;paint-order:stroke markers fill"
            d="M 363.73067,270 415.69219,300 545.596,225 493.63448,195 Z"
            id="path45" />
         <path
            style="fill:#009ede;stroke:#009ede;stroke-width:0;stroke-linecap:round;stroke-linejoin:round;paint-order:stroke markers fill"
            d="M 493.63448,435 285.78838,315 337.74991,285 545.596,405 Z"
            id="path46" />
      </g>
      <path
         id="path47"
         style="fill:#009ede;stroke:#009ede;stroke-width:0;stroke-linecap:round;stroke-linejoin:round;paint-order:stroke markers fill"
         d="m 1251.7869,475.93503 -77.9414,45 363.7305,210 363.7304,-210 -77.9414,-45 -25.9824,15 51.9629,30 -311.7695,180 -311.7696,-180 51.961,-30 z" />
   </g>
</svg>