<svg version="1.1" id="Layer_1" xmlns="http://www.w3.org/2000/svg" xmlns:xlink="http://www.w3.org/1999/xlink" x="0px" y="0px"
	 width="100%" viewBox="0 0 1530 338" enable-background="new 0 0 1530 338" xml:space="preserve">
<path fill="#009EDF" opacity="1.000000" stroke="none" 
	d="
M1102.000000,339.000000 
	C734.666687,339.000000 367.833374,339.000000 1.000049,339.000000 
	C1.000033,226.333359 1.000033,113.666725 1.000016,1.000064 
	C510.999969,1.000043 1020.999939,1.000043 1531.000000,1.000021 
	C1531.000000,113.666603 1531.000000,226.333206 1531.000000,338.999908 
	C1388.166626,339.000000 1245.333374,339.000000 1102.000000,339.000000 
M215.820633,245.573914 
	C215.820633,250.329636 215.820633,255.085358 215.820633,259.713593 
	C232.355377,259.713593 247.960739,259.713593 263.856903,259.713593 
	C259.933105,204.680801 256.031311,149.956940 252.130890,95.252296 
	C231.696609,95.252296 211.927643,95.252296 191.925201,95.252296 
	C186.453156,129.810822 181.014420,164.159073 175.575668,198.507309 
	C175.186966,198.492065 174.798248,198.476822 174.409531,198.461563 
	C168.347046,164.011353 162.284561,129.561157 156.275024,95.411903 
	C135.818115,95.411903 116.084877,95.411903 96.256508,95.411903 
	C92.350143,150.398178 88.472572,204.979218 84.584618,259.706299 
	C100.876740,259.706299 116.443016,259.706299 132.415390,259.706299 
	C132.867523,221.691010 135.111084,183.972137 131.449982,146.251297 
	C131.883286,146.203903 132.316589,146.156509 132.749908,146.109100 
	C138.877472,178.484879 145.005051,210.860641 151.126312,243.203064 
	C166.677261,243.203064 181.767471,243.203064 197.260559,243.203064 
	C202.888931,211.281296 208.477402,179.585831 214.065872,147.890366 
	C214.644699,147.919205 215.223511,147.948044 215.802322,147.976898 
	C215.802322,180.185165 215.802322,212.393448 215.820633,245.573914 
M545.754089,129.083588 
	C533.900208,130.905762 524.702881,137.413406 516.915466,146.374237 
	C502.827301,122.652145 479.965454,122.334114 451.921051,145.027725 
	C450.755341,140.989059 449.629028,137.086945 448.567749,133.410095 
	C434.801270,133.410095 421.546387,133.410095 408.342224,133.410095 
	C408.342224,175.771072 408.342224,217.807312 408.342224,259.755890 
	C423.862946,259.755890 438.974701,259.755890 454.621399,259.755890 
	C454.621399,257.719910 454.621399,255.926361 454.621429,254.132812 
	C454.621613,229.303452 454.596649,204.474060 454.639130,179.644775 
	C454.650055,173.261765 457.331604,168.025848 462.409332,164.244553 
	C467.282501,160.615570 472.018188,162.412720 473.204498,168.304260 
	C473.790100,171.212433 473.889008,174.255219 473.894897,177.237732 
	C473.945435,202.900177 473.924438,228.562790 473.924805,254.225342 
	C473.924835,256.006409 473.924835,257.787476 473.924835,259.712616 
	C489.671844,259.712616 504.896393,259.712616 520.595886,259.712616 
	C520.595886,257.625793 520.595825,255.824997 520.595825,254.024185 
	C520.596069,229.194824 520.560974,204.365387 520.620911,179.536179 
	C520.636292,173.159164 523.374329,167.930954 528.487305,164.191208 
	C533.390747,160.604645 538.051575,162.456818 539.211609,168.408966 
	C539.779419,171.322906 539.878967,174.362732 539.884705,177.346191 
	C539.933960,203.008636 539.913574,228.671249 539.913879,254.333801 
	C539.913879,256.103363 539.913818,257.872925 539.913818,259.670685 
	C555.738770,259.670685 570.958435,259.670685 586.595886,259.670685 
	C586.595886,257.536224 586.595886,255.730179 586.595886,253.924149 
	C586.595886,226.595200 586.623840,199.266174 586.568909,171.937347 
	C586.559509,167.278290 586.434204,162.595032 585.950867,157.965942 
	C584.441345,143.510208 575.326355,132.122070 562.499207,129.516830 
	C557.380127,128.477112 551.919189,129.120667 545.754089,129.083588 
M789.621460,213.500244 
	C789.621521,202.670334 789.706726,191.839539 789.593567,181.010803 
	C789.509155,172.937103 793.792725,167.563400 800.303345,163.860825 
	C806.628662,160.263626 811.521912,163.114410 812.076416,170.341827 
	C812.305481,173.327667 812.341675,176.333740 812.344055,179.330719 
	C812.363953,204.323166 812.355408,229.315643 812.355591,254.308105 
	C812.355591,256.089569 812.355652,257.871002 812.355652,259.695496 
	C828.236206,259.695496 843.475769,259.695496 858.826660,259.695496 
	C858.826660,226.261978 859.380981,193.122498 858.591736,160.015045 
	C858.199524,143.562988 848.650024,132.595123 834.431824,129.606415 
	C819.985718,126.569824 806.645813,129.475143 795.147888,139.203506 
	C793.585693,140.525284 792.040833,141.867538 789.578979,143.980469 
	C789.578979,121.586632 789.578979,100.503464 789.578979,78.977516 
	C773.407715,80.576477 757.775818,82.122116 742.215881,83.660637 
	C742.215881,142.785843 742.215881,201.194168 742.215881,259.695740 
	C758.054932,259.695740 773.610657,259.695740 789.621460,259.695740 
	C789.621460,244.428085 789.621460,229.464172 789.621460,213.500244 
M1310.587402,228.117584 
	C1320.554932,228.117584 1330.522461,228.117584 1340.698730,228.117584 
	C1342.893433,238.890518 1345.009644,249.278442 1347.121582,259.645325 
	C1364.210083,259.645325 1381.065308,259.645325 1398.332397,259.645325 
	C1382.467163,204.487122 1366.728149,149.768219 1350.974609,94.998466 
	C1332.945435,94.998466 1315.462402,95.119110 1297.983521,94.903252 
	C1294.193726,94.856445 1292.586792,95.828903 1291.500854,99.646469 
	C1280.451172,138.491287 1269.174072,177.271469 1257.939209,216.063568 
	C1253.738892,230.566574 1249.482544,245.053345 1245.172974,259.817200 
	C1262.257324,259.817200 1278.875366,259.817200 1295.739258,259.817200 
	C1297.844360,249.196274 1299.924683,238.700577 1302.022339,228.117584 
	C1304.975952,228.117584 1307.298340,228.117584 1310.587402,228.117584 
M1120.621216,243.496613 
	C1120.621216,222.670868 1120.685547,201.844818 1120.588867,181.019531 
	C1120.551392,172.943726 1124.788208,167.572128 1131.294067,163.865311 
	C1137.617676,160.262405 1142.519897,163.109650 1143.075928,170.329849 
	C1143.305786,173.315414 1143.341797,176.321381 1143.344238,179.318176 
	C1143.364136,204.309158 1143.355713,229.300140 1143.355957,254.291138 
	C1143.355957,256.073578 1143.355957,257.856018 1143.355957,259.702057 
	C1159.224854,259.702057 1174.462891,259.702057 1189.828613,259.702057 
	C1189.828613,226.279282 1190.378662,193.143906 1189.595337,160.040085 
	C1189.206055,143.589676 1179.668457,132.639832 1165.459351,129.605881 
	C1150.218628,126.351654 1136.405029,129.936691 1124.424316,140.066238 
	C1122.412842,141.766922 1120.465820,143.543915 1118.042236,145.679138 
	C1116.795776,141.256180 1115.688354,137.327225 1114.601196,133.469482 
	C1100.944824,133.469482 1087.552124,133.469482 1074.216064,133.469482 
	C1074.216064,175.769440 1074.216064,217.686188 1074.216064,259.696442 
	C1089.721313,259.696442 1104.943481,259.696442 1120.621216,259.696442 
	C1120.621216,254.431122 1120.621216,249.462570 1120.621216,243.496613 
M613.511292,125.031067 
	C611.595032,128.900391 609.395142,132.657333 607.810181,136.657898 
	C599.588013,157.411545 599.266235,178.878372 602.721375,200.548096 
	C605.606934,218.645767 612.785278,234.804291 626.934387,246.916946 
	C646.101807,263.325653 668.841064,267.141785 693.028015,263.388855 
	C708.734253,260.951843 721.883667,252.999710 733.645874,241.894653 
	C726.464294,232.791306 719.581482,224.066650 712.714844,215.362518 
	C707.563293,218.498596 702.808228,221.889740 697.641296,224.449554 
	C679.008179,233.680862 661.380676,226.377594 655.161316,206.584427 
	C653.089661,199.991455 651.972229,192.947723 651.494995,186.035721 
	C650.469971,171.190353 650.815430,156.341583 656.922668,142.367294 
	C662.854492,128.794464 673.504639,122.905403 687.884521,126.028778 
	C693.910339,127.337601 699.503540,130.684906 705.248047,133.208725 
	C706.705078,133.848862 707.988281,134.884583 709.486755,135.823349 
	C716.993103,126.967552 724.265442,118.387779 731.665710,109.657097 
	C717.731873,97.610107 702.072327,91.305031 684.396851,90.495628 
	C654.905823,89.145134 630.422180,98.605766 613.511292,125.031067 
M273.971893,174.547043 
	C270.665466,186.792038 269.951599,199.225098 272.093536,211.688232 
	C276.325165,236.310760 289.022095,254.173157 313.848877,261.430176 
	C329.513947,266.009186 345.436768,266.068085 361.205048,261.689728 
	C372.020050,258.686707 381.772278,253.540863 390.626373,245.990097 
	C384.246948,237.378387 378.137726,229.131424 371.925964,220.746033 
	C369.461548,222.254242 367.381256,223.581619 365.250366,224.822067 
	C356.239502,230.067566 346.791443,232.983673 336.152832,231.167007 
	C324.881927,229.242355 318.758484,222.217545 318.823700,210.121216 
	C343.913818,210.121216 369.011292,210.121216 394.030670,210.121216 
	C399.378204,174.758255 388.013000,140.067490 353.137817,131.091965 
	C314.502228,121.148674 282.689789,139.337357 273.971893,174.547043 
M887.384644,257.168579 
	C896.041260,263.431183 905.930054,265.175323 916.287109,264.671051 
	C930.393799,263.984192 942.375732,258.789948 951.000305,246.422638 
	C958.991821,259.516876 971.194519,262.728088 984.898621,263.678284 
	C988.044312,253.688446 991.123657,243.909180 994.251526,233.975952 
	C988.252136,231.225723 986.867798,226.364059 986.866394,220.659592 
	C986.862366,204.335205 987.141602,187.998184 986.602600,171.689484 
	C985.809570,147.690704 973.505920,133.927277 950.221924,130.068604 
	C936.283997,127.758759 922.317566,127.831909 908.493042,130.654160 
	C899.132751,132.565048 889.923950,135.218124 880.240967,137.640961 
	C883.967346,148.504028 887.280579,158.162643 890.638794,167.952332 
	C892.798035,167.294098 894.359924,166.763687 895.950500,166.341782 
	C907.062683,163.394287 918.169189,160.398163 929.867737,161.931992 
	C936.320374,162.778030 939.541931,165.205078 940.505066,170.656036 
	C941.100525,174.026138 941.054565,177.509567 941.339539,181.551666 
	C938.578857,181.551666 936.460022,181.536987 934.341431,181.554077 
	C921.983521,181.653732 909.829102,182.662735 897.990295,186.850510 
	C863.554260,199.031662 865.650269,242.525406 887.384644,257.168579 
M1451.764404,227.500122 
	C1451.764404,183.414902 1451.764404,139.329681 1451.764404,95.392639 
	C1435.089722,95.392639 1419.188477,95.392639 1403.354492,95.392639 
	C1403.354492,150.382431 1403.354492,204.975250 1403.354492,259.694885 
	C1419.529419,259.694885 1435.422729,259.694885 1451.764404,259.694885 
	C1451.764404,249.094879 1451.764404,238.797516 1451.764404,227.500122 
M1054.623535,215.500244 
	C1054.623535,188.113617 1054.623535,160.726974 1054.623535,133.337311 
	C1038.645874,133.337311 1023.549622,133.337311 1008.232422,133.337311 
	C1008.232422,175.605179 1008.232422,217.620712 1008.232422,259.687317 
	C1023.749939,259.687317 1038.966064,259.687317 1054.623535,259.687317 
	C1054.623535,245.082718 1054.623535,230.791489 1054.623535,215.500244 
M1054.349854,100.693916 
	C1059.702515,89.386719 1057.712769,77.703033 1049.143555,70.122391 
	C1040.738037,62.686516 1026.646362,61.509979 1016.909180,67.431122 
	C1007.296753,73.276360 1002.804443,84.483017 1006.047241,95.581039 
	C1008.867310,105.232079 1015.549072,111.168938 1025.379028,112.963104 
	C1037.218140,115.123962 1047.129028,111.813705 1054.349854,100.693916 
z"/>
<path fill="#FDFEFF" opacity="1.000000" stroke="none" 
	d="
M215.811478,245.087830 
	C215.802322,212.393448 215.802322,180.185165 215.802322,147.976898 
	C215.223511,147.948044 214.644699,147.919205 214.065872,147.890366 
	C208.477402,179.585831 202.888931,211.281296 197.260559,243.203064 
	C181.767471,243.203064 166.677261,243.203064 151.126312,243.203064 
	C145.005051,210.860641 138.877472,178.484879 132.749908,146.109100 
	C132.316589,146.156509 131.883286,146.203903 131.449982,146.251297 
	C135.111084,183.972137 132.867523,221.691010 132.415390,259.706299 
	C116.443016,259.706299 100.876740,259.706299 84.584618,259.706299 
	C88.472572,204.979218 92.350143,150.398178 96.256508,95.411903 
	C116.084877,95.411903 135.818115,95.411903 156.275024,95.411903 
	C162.284561,129.561157 168.347046,164.011353 174.409531,198.461563 
	C174.798248,198.476822 175.186966,198.492065 175.575668,198.507309 
	C181.014420,164.159073 186.453156,129.810822 191.925201,95.252296 
	C211.927643,95.252296 231.696609,95.252296 252.130890,95.252296 
	C256.031311,149.956940 259.933105,204.680801 263.856903,259.713593 
	C247.960739,259.713593 232.355377,259.713593 215.820633,259.713593 
	C215.820633,255.085358 215.820633,250.329636 215.811478,245.087830 
z"/>
<path fill="#FDFEFF" opacity="1.000000" stroke="none" 
	d="
M546.183960,129.040771 
	C551.919189,129.120667 557.380127,128.477112 562.499207,129.516830 
	C575.326355,132.122070 584.441345,143.510208 585.950867,157.965942 
	C586.434204,162.595032 586.559509,167.278290 586.568909,171.937347 
	C586.623840,199.266174 586.595886,226.595200 586.595886,253.924149 
	C586.595886,255.730179 586.595886,257.536224 586.595886,259.670685 
	C570.958435,259.670685 555.738770,259.670685 539.913818,259.670685 
	C539.913818,257.872925 539.913879,256.103363 539.913879,254.333801 
	C539.913574,228.671249 539.933960,203.008636 539.884705,177.346191 
	C539.878967,174.362732 539.779419,171.322906 539.211609,168.408966 
	C538.051575,162.456818 533.390747,160.604645 528.487305,164.191208 
	C523.374329,167.930954 520.636292,173.159164 520.620911,179.536179 
	C520.560974,204.365387 520.596069,229.194824 520.595825,254.024185 
	C520.595825,255.824997 520.595886,257.625793 520.595886,259.712616 
	C504.896393,259.712616 489.671844,259.712616 473.924835,259.712616 
	C473.924835,257.787476 473.924835,256.006409 473.924805,254.225342 
	C473.924438,228.562790 473.945435,202.900177 473.894897,177.237732 
	C473.889008,174.255219 473.790100,171.212433 473.204498,168.304260 
	C472.018188,162.412720 467.282501,160.615570 462.409332,164.244553 
	C457.331604,168.025848 454.650055,173.261765 454.639130,179.644775 
	C454.596649,204.474060 454.621613,229.303452 454.621429,254.132812 
	C454.621399,255.926361 454.621399,257.719910 454.621399,259.755890 
	C438.974701,259.755890 423.862946,259.755890 408.342224,259.755890 
	C408.342224,217.807312 408.342224,175.771072 408.342224,133.410095 
	C421.546387,133.410095 434.801270,133.410095 448.567749,133.410095 
	C449.629028,137.086945 450.755341,140.989059 451.921051,145.027725 
	C479.965454,122.334114 502.827301,122.652145 516.915466,146.374237 
	C524.702881,137.413406 533.900208,130.905762 546.183960,129.040771 
z"/>
<path fill="#FDFEFF" opacity="1.000000" stroke="none" 
	d="
M789.621460,214.000244 
	C789.621460,229.464172 789.621460,244.428085 789.621460,259.695740 
	C773.610657,259.695740 758.054932,259.695740 742.215881,259.695740 
	C742.215881,201.194168 742.215881,142.785843 742.215881,83.660637 
	C757.775818,82.122116 773.407715,80.576477 789.578979,78.977516 
	C789.578979,100.503464 789.578979,121.586632 789.578979,143.980469 
	C792.040833,141.867538 793.585693,140.525284 795.147888,139.203506 
	C806.645813,129.475143 819.985718,126.569824 834.431824,129.606415 
	C848.650024,132.595123 858.199524,143.562988 858.591736,160.015045 
	C859.380981,193.122498 858.826660,226.261978 858.826660,259.695496 
	C843.475769,259.695496 828.236206,259.695496 812.355652,259.695496 
	C812.355652,257.871002 812.355591,256.089569 812.355591,254.308105 
	C812.355408,229.315643 812.363953,204.323166 812.344055,179.330719 
	C812.341675,176.333740 812.305481,173.327667 812.076416,170.341827 
	C811.521912,163.114410 806.628662,160.263626 800.303345,163.860825 
	C793.792725,167.563400 789.509155,172.937103 789.593567,181.010803 
	C789.706726,191.839539 789.621521,202.670334 789.621460,214.000244 
z"/>
<path fill="#FEFFFF" opacity="1.000000" stroke="none" 
	d="
M1310.104004,228.117584 
	C1307.298340,228.117584 1304.975952,228.117584 1302.022339,228.117584 
	C1299.924683,238.700577 1297.844360,249.196274 1295.739258,259.817200 
	C1278.875366,259.817200 1262.257324,259.817200 1245.172974,259.817200 
	C1249.482544,245.053345 1253.738892,230.566574 1257.939209,216.063568 
	C1269.174072,177.271469 1280.451172,138.491287 1291.500854,99.646469 
	C1292.586792,95.828903 1294.193726,94.856445 1297.983521,94.903252 
	C1315.462402,95.119110 1332.945435,94.998466 1350.974609,94.998466 
	C1366.728149,149.768219 1382.467163,204.487122 1398.332397,259.645325 
	C1381.065308,259.645325 1364.210083,259.645325 1347.121582,259.645325 
	C1345.009644,249.278442 1342.893433,238.890518 1340.698730,228.117584 
	C1330.522461,228.117584 1320.554932,228.117584 1310.104004,228.117584 
M1329.224121,194.173004 
	C1330.685059,194.091446 1332.145996,194.009888 1333.875122,193.913361 
	C1329.793579,172.840149 1325.782227,152.129898 1321.770996,131.419647 
	C1321.407837,131.412018 1321.044678,131.404373 1320.681519,131.396744 
	C1316.741577,152.142044 1312.801636,172.887360 1308.759033,194.173279 
	C1315.701660,194.173279 1321.991089,194.173279 1329.224121,194.173004 
z"/>
<path fill="#FDFEFF" opacity="1.000000" stroke="none" 
	d="
M1120.621216,243.995300 
	C1120.621216,249.462570 1120.621216,254.431122 1120.621216,259.696442 
	C1104.943481,259.696442 1089.721313,259.696442 1074.216064,259.696442 
	C1074.216064,217.686188 1074.216064,175.769440 1074.216064,133.469482 
	C1087.552124,133.469482 1100.944824,133.469482 1114.601196,133.469482 
	C1115.688354,137.327225 1116.795776,141.256180 1118.042236,145.679138 
	C1120.465820,143.543915 1122.412842,141.766922 1124.424316,140.066238 
	C1136.405029,129.936691 1150.218628,126.351654 1165.459351,129.605881 
	C1179.668457,132.639832 1189.206055,143.589676 1189.595337,160.040085 
	C1190.378662,193.143906 1189.828613,226.279282 1189.828613,259.702057 
	C1174.462891,259.702057 1159.224854,259.702057 1143.355957,259.702057 
	C1143.355957,257.856018 1143.355957,256.073578 1143.355957,254.291138 
	C1143.355713,229.300140 1143.364136,204.309158 1143.344238,179.318176 
	C1143.341797,176.321381 1143.305786,173.315414 1143.075928,170.329849 
	C1142.519897,163.109650 1137.617676,160.262405 1131.294067,163.865311 
	C1124.788208,167.572128 1120.551392,172.943726 1120.588867,181.019531 
	C1120.685547,201.844818 1120.621216,222.670868 1120.621216,243.995300 
z"/>
<path fill="#FDFEFF" opacity="1.000000" stroke="none" 
	d="
M613.710693,124.725876 
	C630.422180,98.605766 654.905823,89.145134 684.396851,90.495628 
	C702.072327,91.305031 717.731873,97.610107 731.665710,109.657097 
	C724.265442,118.387779 716.993103,126.967552 709.486755,135.823349 
	C707.988281,134.884583 706.705078,133.848862 705.248047,133.208725 
	C699.503540,130.684906 693.910339,127.337601 687.884521,126.028778 
	C673.504639,122.905403 662.854492,128.794464 656.922668,142.367294 
	C650.815430,156.341583 650.469971,171.190353 651.494995,186.035721 
	C651.972229,192.947723 653.089661,199.991455 655.161316,206.584427 
	C661.380676,226.377594 679.008179,233.680862 697.641296,224.449554 
	C702.808228,221.889740 707.563293,218.498596 712.714844,215.362518 
	C719.581482,224.066650 726.464294,232.791306 733.645874,241.894653 
	C721.883667,252.999710 708.734253,260.951843 693.028015,263.388855 
	C668.841064,267.141785 646.101807,263.325653 626.934387,246.916946 
	C612.785278,234.804291 605.606934,218.645767 602.721375,200.548096 
	C599.266235,178.878372 599.588013,157.411545 607.810181,136.657898 
	C609.395142,132.657333 611.595032,128.900391 613.710693,124.725876 
z"/>
<path fill="#FEFEFF" opacity="1.000000" stroke="none" 
	d="
M274.060669,174.145813 
	C282.689789,139.337357 314.502228,121.148674 353.137817,131.091965 
	C388.013000,140.067490 399.378204,174.758255 394.030670,210.121216 
	C369.011292,210.121216 343.913818,210.121216 318.823700,210.121216 
	C318.758484,222.217545 324.881927,229.242355 336.152832,231.167007 
	C346.791443,232.983673 356.239502,230.067566 365.250366,224.822067 
	C367.381256,223.581619 369.461548,222.254242 371.925964,220.746033 
	C378.137726,229.131424 384.246948,237.378387 390.626373,245.990097 
	C381.772278,253.540863 372.020050,258.686707 361.205048,261.689728 
	C345.436768,266.068085 329.513947,266.009186 313.848877,261.430176 
	C289.022095,254.173157 276.325165,236.310760 272.093536,211.688232 
	C269.951599,199.225098 270.665466,186.792038 274.060669,174.145813 
M349.405365,181.503159 
	C348.669983,176.603073 348.274506,171.620361 347.108826,166.824875 
	C345.802277,161.450089 341.985931,158.452225 336.375671,158.012878 
	C330.285004,157.535904 324.615784,159.018372 322.206085,164.949814 
	C319.846649,170.757507 318.896667,177.137802 317.159119,183.926849 
	C328.114594,183.926849 337.714874,183.959534 347.313782,183.858765 
	C348.008881,183.851471 348.693817,182.873428 349.405365,181.503159 
z"/>
<path fill="#FDFEFF" opacity="1.000000" stroke="none" 
	d="
M887.080322,256.976501 
	C865.650269,242.525406 863.554260,199.031662 897.990295,186.850510 
	C909.829102,182.662735 921.983521,181.653732 934.341431,181.554077 
	C936.460022,181.536987 938.578857,181.551666 941.339539,181.551666 
	C941.054565,177.509567 941.100525,174.026138 940.505066,170.656036 
	C939.541931,165.205078 936.320374,162.778030 929.867737,161.931992 
	C918.169189,160.398163 907.062683,163.394287 895.950500,166.341782 
	C894.359924,166.763687 892.798035,167.294098 890.638794,167.952332 
	C887.280579,158.162643 883.967346,148.504028 880.240967,137.640961 
	C889.923950,135.218124 899.132751,132.565048 908.493042,130.654160 
	C922.317566,127.831909 936.283997,127.758759 950.221924,130.068604 
	C973.505920,133.927277 985.809570,147.690704 986.602600,171.689484 
	C987.141602,187.998184 986.862366,204.335205 986.866394,220.659592 
	C986.867798,226.364059 988.252136,231.225723 994.251526,233.975952 
	C991.123657,243.909180 988.044312,253.688446 984.898621,263.678284 
	C971.194519,262.728088 958.991821,259.516876 951.000305,246.422638 
	C942.375732,258.789948 930.393799,263.984192 916.287109,264.671051 
	C905.930054,265.175323 896.041260,263.431183 887.080322,256.976501 
M928.367310,231.936920 
	C933.750488,231.275009 939.403137,229.353455 940.719971,224.154907 
	C942.163391,218.456512 941.048523,212.110062 941.048523,204.981018 
	C934.874023,206.064514 929.346863,206.410553 924.261963,208.093201 
	C918.601318,209.966370 916.152161,215.910522 917.145081,222.511383 
	C918.009949,228.261459 921.137329,231.100693 928.367310,231.936920 
z"/>
<path fill="#FDFEFF" opacity="1.000000" stroke="none" 
	d="
M1451.764404,228.000137 
	C1451.764404,238.797516 1451.764404,249.094879 1451.764404,259.694885 
	C1435.422729,259.694885 1419.529419,259.694885 1403.354492,259.694885 
	C1403.354492,204.975250 1403.354492,150.382431 1403.354492,95.392639 
	C1419.188477,95.392639 1435.089722,95.392639 1451.764404,95.392639 
	C1451.764404,139.329681 1451.764404,183.414902 1451.764404,228.000137 
z"/>
<path fill="#FCFEFF" opacity="1.000000" stroke="none" 
	d="
M1054.623535,216.000244 
	C1054.623535,230.791489 1054.623535,245.082718 1054.623535,259.687317 
	C1038.966064,259.687317 1023.749939,259.687317 1008.232422,259.687317 
	C1008.232422,217.620712 1008.232422,175.605179 1008.232422,133.337311 
	C1023.549622,133.337311 1038.645874,133.337311 1054.623535,133.337311 
	C1054.623535,160.726974 1054.623535,188.113617 1054.623535,216.000244 
z"/>
<path fill="#FDFEFF" opacity="1.000000" stroke="none" 
	d="
M1054.167236,101.019897 
	C1047.129028,111.813705 1037.218140,115.123962 1025.379028,112.963104 
	C1015.549072,111.168938 1008.867310,105.232079 1006.047241,95.581039 
	C1002.804443,84.483017 1007.296753,73.276360 1016.909180,67.431122 
	C1026.646362,61.509979 1040.738037,62.686516 1049.143555,70.122391 
	C1057.712769,77.703033 1059.702515,89.386719 1054.167236,101.019897 
z"/>
<path fill="#05A0E0" opacity="1.000000" stroke="none" 
	d="
M1328.752319,194.173141 
	C1321.991089,194.173279 1315.701660,194.173279 1308.759033,194.173279 
	C1312.801636,172.887360 1316.741577,152.142044 1320.681519,131.396744 
	C1321.044678,131.404373 1321.407837,131.412018 1321.770996,131.419647 
	C1325.782227,152.129898 1329.793579,172.840149 1333.875122,193.913361 
	C1332.145996,194.009888 1330.685059,194.091446 1328.752319,194.173141 
z"/>
<path fill="#049FDF" opacity="1.000000" stroke="none" 
	d="
M349.394440,181.924942 
	C348.693817,182.873428 348.008881,183.851471 347.313782,183.858765 
	C337.714874,183.959534 328.114594,183.926849 317.159119,183.926849 
	C318.896667,177.137802 319.846649,170.757507 322.206085,164.949814 
	C324.615784,159.018372 330.285004,157.535904 336.375671,158.012878 
	C341.985931,158.452225 345.802277,161.450089 347.108826,166.824875 
	C348.274506,171.620361 348.669983,176.603073 349.394440,181.924942 
z"/>
<path fill="#049FDF" opacity="1.000000" stroke="none" 
	d="
M927.958801,231.947510 
	C921.137329,231.100693 918.009949,228.261459 917.145081,222.511383 
	C916.152161,215.910522 918.601318,209.966370 924.261963,208.093201 
	C929.346863,206.410553 934.874023,206.064514 941.048523,204.981018 
	C941.048523,212.110062 942.163391,218.456512 940.719971,224.154907 
	C939.403137,229.353455 933.750488,231.275009 927.958801,231.947510 
z"/>
</svg>