<svg version="1.1" id="Layer_1" xmlns="http://www.w3.org/2000/svg" xmlns:xlink="http://www.w3.org/1999/xlink" x="0px" y="0px"
	 width="100%" viewBox="0 0 2660 458" enable-background="new 0 0 2660 458" xml:space="preserve">
<path fill="#FFFFFF" opacity="1.000000" stroke="none" 
	d="
M1997.000000,459.000000 
	C1331.333496,459.000000 666.166931,459.000000 1.000268,459.000000 
	C1.000179,306.333466 1.000179,153.666962 1.000089,1.000329 
	C887.666321,1.000219 1774.332642,1.000219 2660.999268,1.000110 
	C2660.999512,153.666336 2660.999512,306.332672 2660.999756,458.999512 
	C2439.833252,459.000000 2218.666748,459.000000 1997.000000,459.000000 
M378.995422,364.529785 
	C377.061829,338.463318 375.072968,312.400787 373.210205,286.329285 
	C371.335419,260.089447 369.626312,233.837784 367.771362,207.596497 
	C365.529022,175.874817 363.223572,144.157562 360.915222,112.440582 
	C360.217010,102.846779 359.418579,93.260262 358.650055,83.466339 
	C321.019104,83.466339 283.625641,83.466339 245.907150,83.466339 
	C235.467056,148.460510 225.064270,213.222305 214.661499,277.984100 
	C214.281723,278.012909 213.901947,278.041718 213.522156,278.070496 
	C201.947525,213.163788 190.372879,148.257080 178.832596,83.542969 
	C141.004593,83.542969 103.766655,83.542969 66.396835,83.542969 
	C59.025871,186.116608 51.680576,288.333038 44.329353,390.632019 
	C74.451073,390.632019 104.167313,390.632019 134.140381,390.632019 
	C135.211761,316.278198 139.404678,242.274399 132.570740,168.272217 
	C144.802536,232.070038 157.034332,295.867859 169.296600,359.824554 
	C198.199280,359.824554 226.801315,359.824554 255.684311,359.824554 
	C266.874268,297.301819 278.039612,234.916733 289.204956,172.531631 
	C289.639618,172.557556 290.074310,172.583496 290.508972,172.609436 
	C286.012329,245.312332 290.051270,317.943329 290.917938,390.684204 
	C321.241028,390.684204 350.975494,390.684204 380.819794,390.684204 
	C380.197693,382.062164 379.599182,373.766754 378.995422,364.529785 
M652.000000,271.500000 
	C652.000000,311.248474 652.000000,350.996948 652.000000,390.694397 
	C681.577148,390.694397 710.485657,390.694397 739.807434,390.694397 
	C739.807434,388.429138 739.808411,386.464142 739.807251,384.499176 
	C739.778198,336.177490 739.735657,287.855804 739.728577,239.534134 
	C739.726685,226.693863 746.992737,218.004272 757.060791,211.682556 
	C764.678955,206.899155 772.235352,210.371841 774.317932,219.181473 
	C775.528015,224.300385 775.860229,229.725113 775.871582,235.013763 
	C775.979004,285.001495 775.932373,334.989563 775.930054,384.977539 
	C775.929993,386.899872 775.930054,388.822205 775.930054,390.732971 
	C805.379639,390.732971 834.138672,390.732971 863.334106,390.732971 
	C863.334106,388.509766 863.334656,386.549194 863.333862,384.588593 
	C863.315063,336.266907 863.234070,287.945099 863.318542,239.623596 
	C863.341187,226.664017 870.825012,217.806488 881.140259,211.515366 
	C888.582947,206.976181 896.025391,210.504013 898.008179,219.060974 
	C899.270813,224.510040 899.665161,230.264099 899.676819,235.882980 
	C899.779724,285.537445 899.709534,335.192230 899.690735,384.846924 
	C899.690002,386.775482 899.690674,388.704071 899.690674,390.600372 
	C929.198120,390.600372 958.065857,390.600372 987.080261,390.600372 
	C987.080261,389.370453 987.080383,388.540466 987.080261,387.710449 
	C987.071411,330.390930 987.132446,273.071228 986.962524,215.752197 
	C986.941956,208.806107 986.320923,201.725418 984.867615,194.945145 
	C980.207520,173.203659 968.910095,155.828598 946.819092,149.447388 
	C917.696655,141.035049 891.178772,148.000931 868.298157,167.963379 
	C864.146301,171.585693 860.553955,175.849289 856.517517,180.008194 
	C855.182922,177.592072 854.238770,175.839142 853.254944,174.108795 
	C846.757202,162.680374 837.598022,154.176987 825.057678,150.002487 
	C802.967773,142.649048 781.399292,145.338806 761.381409,156.349258 
	C751.652893,161.700287 743.468018,169.858047 734.530762,176.786743 
	C732.709106,170.177628 730.624329,162.613663 728.608154,155.298843 
	C702.807068,155.298843 677.557800,155.298843 652.000000,155.298843 
	C652.000000,193.905411 652.000000,232.202713 652.000000,271.500000 
M2342.500977,331.294434 
	C2360.467529,331.294434 2378.434082,331.294434 2396.602539,331.294434 
	C2400.631836,351.419312 2404.565674,371.067932 2408.514404,390.789429 
	C2440.822998,390.789429 2472.746582,390.789429 2505.053223,390.789429 
	C2475.209473,288.063263 2445.453369,185.639099 2415.692627,83.199150 
	C2381.458496,83.199150 2347.798828,83.361023 2314.143555,83.042343 
	C2308.428711,82.988228 2306.363037,84.637291 2304.776367,90.117607 
	C2278.734131,180.066513 2252.414795,269.935150 2226.173584,359.826447 
	C2223.180664,370.078857 2220.283447,380.359100 2217.325195,390.684692 
	C2249.320068,390.684692 2280.742188,390.684692 2312.396729,390.684692 
	C2315.963379,372.164185 2319.552246,353.920593 2322.926025,335.637268 
	C2323.510742,332.466736 2324.542969,330.996399 2328.007080,331.223022 
	C2332.487793,331.516083 2337.002197,331.294617 2342.500977,331.294434 
M1379.993164,214.408508 
	C1381.729126,213.424789 1383.391235,212.268967 1385.213501,211.485748 
	C1395.670898,206.990723 1403.422974,211.054413 1405.284790,222.269302 
	C1406.015625,226.671402 1406.071289,231.220749 1406.073364,235.703217 
	C1406.096680,285.531281 1406.049072,335.359375 1406.020630,385.187439 
	C1406.019653,386.973816 1406.020508,388.760162 1406.020508,390.624634 
	C1435.526855,390.624634 1464.558105,390.624634 1493.859375,390.624634 
	C1493.859375,389.269135 1493.859863,388.288422 1493.859253,387.307709 
	C1493.822388,330.480377 1493.844727,273.652863 1493.668457,216.825943 
	C1493.647949,210.199310 1493.037476,203.481857 1491.826050,196.969193 
	C1488.416260,178.639481 1479.848267,163.484970 1463.122681,154.020706 
	C1439.028076,140.386795 1400.786865,144.649826 1377.433838,163.479752 
	C1372.864014,167.164505 1368.483521,171.084015 1363.105469,175.671661 
	C1363.105469,134.146744 1363.105469,93.775597 1363.105469,53.244381 
	C1333.731201,56.224903 1304.975220,59.142696 1276.160767,62.066425 
	C1276.160767,171.894363 1276.160767,281.272614 1276.160767,390.752380 
	C1305.232422,390.752380 1333.986328,390.752380 1363.215088,390.752380 
	C1363.215088,388.557861 1363.215454,386.604431 1363.215088,384.650970 
	C1363.205200,338.322510 1363.537842,291.989502 1362.923950,245.669067 
	C1362.785278,235.201675 1365.925537,227.356705 1373.104004,220.509018 
	C1375.148438,218.558746 1377.299805,216.720566 1379.993164,214.408508 
M1919.500000,391.000122 
	C1940.941284,391.000122 1962.382446,391.000122 1984.221680,391.000122 
	C1984.221680,388.650818 1984.222046,386.853546 1984.221680,385.056274 
	C1984.210083,336.071411 1984.195435,287.086578 1984.199219,238.101715 
	C1984.199341,236.452118 1983.799683,234.430618 1984.575317,233.211823 
	C1990.701538,223.586090 1997.306396,214.271683 2008.901855,210.610611 
	C2017.953125,207.752792 2024.467773,211.727310 2026.067627,221.117172 
	C2026.872559,225.842133 2027.064453,230.717880 2027.068359,235.525818 
	C2027.108887,285.343689 2027.054199,335.161621 2027.026367,384.979553 
	C2027.025269,386.904816 2027.026367,388.830078 2027.026367,390.708069 
	C2056.621826,390.708069 2085.534424,390.708069 2114.866211,390.708069 
	C2114.866211,388.458984 2114.866943,386.496338 2114.865967,384.533691 
	C2114.834229,330.717010 2114.829346,276.900238 2114.735352,223.083679 
	C2114.724121,216.596497 2114.454346,210.091782 2113.923340,203.626480 
	C2111.104736,169.293793 2087.138184,146.754089 2052.777344,146.139359 
	C2026.811279,145.674820 2004.621704,154.821777 1986.005737,172.833115 
	C1984.028809,174.745789 1982.003784,176.608627 1979.555664,178.914169 
	C1977.758545,172.005325 1975.974365,165.994888 1974.686768,159.879898 
	C1973.909546,156.188614 1972.419067,154.843933 1968.434814,154.883301 
	C1946.277222,155.102325 1924.116333,154.988419 1901.956543,154.988419 
	C1900.354248,154.988419 1898.752075,154.988419 1897.209351,154.988419 
	C1897.209351,233.994354 1897.209351,312.360809 1897.209351,391.000122 
	C1904.544312,391.000122 1911.522095,391.000122 1919.500000,391.000122 
M1255.709595,108.730804 
	C1248.468750,103.703995 1241.533691,98.149925 1233.933350,93.743340 
	C1203.952148,76.360695 1171.361328,71.674866 1137.459961,75.982979 
	C1083.562134,82.832222 1045.277954,111.429512 1025.553223,162.019577 
	C1006.990723,209.629059 1007.868469,258.556671 1023.077271,306.996643 
	C1032.322510,336.442566 1049.027588,361.618652 1076.098145,377.254456 
	C1125.869019,406.001770 1177.178223,408.953888 1228.807129,381.426849 
	C1240.852417,375.004608 1251.798462,366.895111 1261.562500,356.755737 
	C1248.248413,339.903412 1235.091919,323.250610 1222.378540,307.158691 
	C1212.711060,313.115540 1204.041260,319.470947 1194.538086,324.124664 
	C1165.055786,338.562531 1128.093384,333.770905 1114.751221,291.572021 
	C1110.783081,279.021454 1108.713989,265.613220 1107.678101,252.448257 
	C1105.723755,227.610260 1106.648071,202.759125 1115.046387,178.909821 
	C1122.083008,158.927551 1134.019531,143.631424 1156.633301,140.482193 
	C1171.311646,138.438049 1185.099976,141.980255 1197.984619,149.002350 
	C1204.220459,152.400894 1210.208862,156.253632 1216.457642,159.989426 
	C1229.772949,144.300491 1243.054565,128.706345 1256.198608,112.997025 
	C1256.837891,112.233040 1256.268921,110.458153 1255.709595,108.730804 
M442.049133,167.531616 
	C428.963989,177.422318 418.199036,189.372223 410.935364,204.124359 
	C391.653015,243.285828 389.610687,283.922089 403.268921,324.924957 
	C414.070221,357.351166 435.782379,380.763885 468.710480,391.501587 
	C507.388062,404.114197 546.056335,403.203369 583.796570,386.930389 
	C596.662781,381.382721 608.412659,373.923096 619.341003,364.730591 
	C607.485718,348.756683 595.827332,333.048065 584.028259,317.149841 
	C581.434998,318.853546 579.374695,320.228638 577.293396,321.571106 
	C559.044006,333.342194 539.746338,340.566803 517.403809,337.099884 
	C496.824951,333.906677 483.527985,318.874359 484.110779,297.838623 
	C531.492859,297.838623 578.892639,297.838623 626.523499,297.838623 
	C628.765625,276.573456 629.227234,255.861954 624.924194,235.279358 
	C619.441833,209.055771 607.753357,186.360977 586.421326,169.453232 
	C568.352905,155.132233 547.380127,148.420883 524.601990,146.707001 
	C495.021118,144.481262 467.216309,149.307159 442.049133,167.531616 
M1732.878052,293.500000 
	C1732.877930,274.167480 1733.045288,254.832779 1732.795532,235.503464 
	C1732.694702,227.697922 1732.201050,219.822495 1730.988403,212.120224 
	C1727.248291,188.365616 1715.824341,169.696381 1693.775146,158.609833 
	C1679.414673,151.389145 1663.887207,148.648178 1648.068848,147.066254 
	C1621.745850,144.433762 1595.820801,147.231964 1570.245972,153.281158 
	C1557.886230,156.204605 1545.814453,160.345428 1533.144531,164.072662 
	C1539.811523,183.522095 1546.085449,201.824509 1552.302124,219.960220 
	C1563.765869,217.044540 1574.638062,213.935471 1585.667969,211.557404 
	C1600.863403,208.281204 1616.196655,206.102280 1631.680664,209.986145 
	C1637.072144,211.338470 1641.603271,213.910950 1644.085815,219.160614 
	C1647.763794,226.937744 1647.646362,235.148422 1647.199097,243.891876 
	C1641.911987,243.891876 1637.110352,243.921860 1632.309204,243.886627 
	C1612.567139,243.741714 1592.986206,245.258698 1574.064697,251.209656 
	C1543.300659,260.885193 1521.558594,279.280975 1517.512207,313.201935 
	C1514.624023,337.412689 1519.440063,359.644379 1537.133545,377.774567 
	C1550.329956,391.296661 1566.723267,398.014221 1585.249268,399.359680 
	C1608.957153,401.081482 1631.571411,397.626038 1650.596680,381.878479 
	C1656.150269,377.281708 1660.787598,371.577789 1666.099854,366.119446 
	C1680.218872,390.266144 1703.787598,395.901428 1729.372681,398.039429 
	C1735.353638,379.017914 1741.162354,360.544312 1747.060425,341.786682 
	C1736.619019,338.188568 1733.513306,330.022156 1733.088135,320.493835 
	C1732.702148,311.843323 1732.924072,303.165680 1732.878052,293.500000 
M2512.966553,336.500000 
	C2512.966553,354.580627 2512.966553,372.661255 2512.966553,390.651184 
	C2543.687744,390.651184 2573.734863,390.651184 2603.751953,390.651184 
	C2603.751953,288.090118 2603.751953,185.881760 2603.751953,83.460876 
	C2573.460693,83.460876 2543.419189,83.460876 2512.966553,83.460876 
	C2512.966553,167.670044 2512.966553,251.585022 2512.966553,336.500000 
M1815.500000,154.988037 
	C1801.079834,154.988037 1786.659790,154.988037 1772.258545,154.988037 
	C1772.258545,233.985550 1772.258545,312.254089 1772.258545,390.630493 
	C1801.526489,390.630493 1830.559814,390.630493 1859.613647,390.630493 
	C1859.613647,311.999359 1859.613647,233.738510 1859.613647,154.988037 
	C1845.075806,154.988037 1830.787842,154.988037 1815.500000,154.988037 
M1786.170776,33.628246 
	C1765.958252,48.554276 1760.479248,76.344620 1774.119263,96.709793 
	C1785.440796,113.613556 1802.035767,119.734833 1821.706177,117.898849 
	C1839.832520,116.206985 1853.701782,107.284920 1860.960815,90.422531 
	C1868.194702,73.618675 1866.497925,57.083195 1854.966797,42.436630 
	C1839.369751,22.625986 1808.948608,18.669363 1786.170776,33.628246 
z"/>
<path fill="#019EDE" opacity="1.000000" stroke="none" 
	d="
M378.998047,365.000549 
	C379.599182,373.766754 380.197693,382.062164 380.819794,390.684204 
	C350.975494,390.684204 321.241028,390.684204 290.917938,390.684204 
	C290.051270,317.943329 286.012329,245.312332 290.508972,172.609436 
	C290.074310,172.583496 289.639618,172.557556 289.204956,172.531631 
	C278.039612,234.916733 266.874268,297.301819 255.684311,359.824554 
	C226.801315,359.824554 198.199280,359.824554 169.296600,359.824554 
	C157.034332,295.867859 144.802536,232.070038 132.570740,168.272217 
	C139.404678,242.274399 135.211761,316.278198 134.140381,390.632019 
	C104.167313,390.632019 74.451073,390.632019 44.329353,390.632019 
	C51.680576,288.333038 59.025871,186.116608 66.396835,83.542969 
	C103.766655,83.542969 141.004593,83.542969 178.832596,83.542969 
	C190.372879,148.257080 201.947525,213.163788 213.522156,278.070496 
	C213.901947,278.041718 214.281723,278.012909 214.661499,277.984100 
	C225.064270,213.222305 235.467056,148.460510 245.907150,83.466339 
	C283.625641,83.466339 321.019104,83.466339 358.650055,83.466339 
	C359.418579,93.260262 360.217010,102.846779 360.915222,112.440582 
	C363.223572,144.157562 365.529022,175.874817 367.771362,207.596497 
	C369.626312,233.837784 371.335419,260.089447 373.210205,286.329285 
	C375.072968,312.400787 377.061829,338.463318 378.998047,365.000549 
z"/>
<path fill="#009EDE" opacity="1.000000" stroke="none" 
	d="
M652.000000,271.000000 
	C652.000000,232.202713 652.000000,193.905411 652.000000,155.298843 
	C677.557800,155.298843 702.807068,155.298843 728.608154,155.298843 
	C730.624329,162.613663 732.709106,170.177628 734.530762,176.786743 
	C743.468018,169.858047 751.652893,161.700287 761.381409,156.349258 
	C781.399292,145.338806 802.967773,142.649048 825.057678,150.002487 
	C837.598022,154.176987 846.757202,162.680374 853.254944,174.108795 
	C854.238770,175.839142 855.182922,177.592072 856.517517,180.008194 
	C860.553955,175.849289 864.146301,171.585693 868.298157,167.963379 
	C891.178772,148.000931 917.696655,141.035049 946.819092,149.447388 
	C968.910095,155.828598 980.207520,173.203659 984.867615,194.945145 
	C986.320923,201.725418 986.941956,208.806107 986.962524,215.752197 
	C987.132446,273.071228 987.071411,330.390930 987.080261,387.710449 
	C987.080383,388.540466 987.080261,389.370453 987.080261,390.600372 
	C958.065857,390.600372 929.198120,390.600372 899.690674,390.600372 
	C899.690674,388.704071 899.690002,386.775482 899.690735,384.846924 
	C899.709534,335.192230 899.779724,285.537445 899.676819,235.882980 
	C899.665161,230.264099 899.270813,224.510040 898.008179,219.060974 
	C896.025391,210.504013 888.582947,206.976181 881.140259,211.515366 
	C870.825012,217.806488 863.341187,226.664017 863.318542,239.623596 
	C863.234070,287.945099 863.315063,336.266907 863.333862,384.588593 
	C863.334656,386.549194 863.334106,388.509766 863.334106,390.732971 
	C834.138672,390.732971 805.379639,390.732971 775.930054,390.732971 
	C775.930054,388.822205 775.929993,386.899872 775.930054,384.977539 
	C775.932373,334.989563 775.979004,285.001495 775.871582,235.013763 
	C775.860229,229.725113 775.528015,224.300385 774.317932,219.181473 
	C772.235352,210.371841 764.678955,206.899155 757.060791,211.682556 
	C746.992737,218.004272 739.726685,226.693863 739.728577,239.534134 
	C739.735657,287.855804 739.778198,336.177490 739.807251,384.499176 
	C739.808411,386.464142 739.807434,388.429138 739.807434,390.694397 
	C710.485657,390.694397 681.577148,390.694397 652.000000,390.694397 
	C652.000000,350.996948 652.000000,311.248474 652.000000,271.000000 
z"/>
<path fill="#019EDE" opacity="1.000000" stroke="none" 
	d="
M2342.001465,331.294556 
	C2337.002197,331.294617 2332.487793,331.516083 2328.007080,331.223022 
	C2324.542969,330.996399 2323.510742,332.466736 2322.926025,335.637268 
	C2319.552246,353.920593 2315.963379,372.164185 2312.396729,390.684692 
	C2280.742188,390.684692 2249.320068,390.684692 2217.325195,390.684692 
	C2220.283447,380.359100 2223.180664,370.078857 2226.173584,359.826447 
	C2252.414795,269.935150 2278.734131,180.066513 2304.776367,90.117607 
	C2306.363037,84.637291 2308.428711,82.988228 2314.143555,83.042343 
	C2347.798828,83.361023 2381.458496,83.199150 2415.692627,83.199150 
	C2445.453369,185.639099 2475.209473,288.063263 2505.053223,390.789429 
	C2472.746582,390.789429 2440.822998,390.789429 2408.514404,390.789429 
	C2404.565674,371.067932 2400.631836,351.419312 2396.602539,331.294434 
	C2378.434082,331.294434 2360.467529,331.294434 2342.001465,331.294556 
M2349.698486,201.057159 
	C2345.377930,223.104492 2341.057129,245.151825 2336.704590,267.362427 
	C2352.781250,267.362427 2368.114014,267.362427 2383.737793,267.362427 
	C2375.919678,228.144852 2368.190186,189.370560 2360.460693,150.596268 
	C2360.101562,150.628021 2359.742432,150.659775 2359.383545,150.691528 
	C2356.223145,167.201904 2353.062744,183.712296 2349.698486,201.057159 
z"/>
<path fill="#019EDE" opacity="1.000000" stroke="none" 
	d="
M1379.697632,214.619720 
	C1377.299805,216.720566 1375.148438,218.558746 1373.104004,220.509018 
	C1365.925537,227.356705 1362.785278,235.201675 1362.923950,245.669067 
	C1363.537842,291.989502 1363.205200,338.322510 1363.215088,384.650970 
	C1363.215454,386.604431 1363.215088,388.557861 1363.215088,390.752380 
	C1333.986328,390.752380 1305.232422,390.752380 1276.160767,390.752380 
	C1276.160767,281.272614 1276.160767,171.894363 1276.160767,62.066425 
	C1304.975220,59.142696 1333.731201,56.224903 1363.105469,53.244381 
	C1363.105469,93.775597 1363.105469,134.146744 1363.105469,175.671661 
	C1368.483521,171.084015 1372.864014,167.164505 1377.433838,163.479752 
	C1400.786865,144.649826 1439.028076,140.386795 1463.122681,154.020706 
	C1479.848267,163.484970 1488.416260,178.639481 1491.826050,196.969193 
	C1493.037476,203.481857 1493.647949,210.199310 1493.668457,216.825943 
	C1493.844727,273.652863 1493.822388,330.480377 1493.859253,387.307709 
	C1493.859863,388.288422 1493.859375,389.269135 1493.859375,390.624634 
	C1464.558105,390.624634 1435.526855,390.624634 1406.020508,390.624634 
	C1406.020508,388.760162 1406.019653,386.973816 1406.020630,385.187439 
	C1406.049072,335.359375 1406.096680,285.531281 1406.073364,235.703217 
	C1406.071289,231.220749 1406.015625,226.671402 1405.284790,222.269302 
	C1403.422974,211.054413 1395.670898,206.990723 1385.213501,211.485748 
	C1383.391235,212.268967 1381.729126,213.424789 1379.697632,214.619720 
z"/>
<path fill="#019EDE" opacity="1.000000" stroke="none" 
	d="
M1919.000000,391.000122 
	C1911.522095,391.000122 1904.544312,391.000122 1897.209351,391.000122 
	C1897.209351,312.360809 1897.209351,233.994354 1897.209351,154.988419 
	C1898.752075,154.988419 1900.354248,154.988419 1901.956543,154.988419 
	C1924.116333,154.988419 1946.277222,155.102325 1968.434814,154.883301 
	C1972.419067,154.843933 1973.909546,156.188614 1974.686768,159.879898 
	C1975.974365,165.994888 1977.758545,172.005325 1979.555664,178.914169 
	C1982.003784,176.608627 1984.028809,174.745789 1986.005737,172.833115 
	C2004.621704,154.821777 2026.811279,145.674820 2052.777344,146.139359 
	C2087.138184,146.754089 2111.104736,169.293793 2113.923340,203.626480 
	C2114.454346,210.091782 2114.724121,216.596497 2114.735352,223.083679 
	C2114.829346,276.900238 2114.834229,330.717010 2114.865967,384.533691 
	C2114.866943,386.496338 2114.866211,388.458984 2114.866211,390.708069 
	C2085.534424,390.708069 2056.621826,390.708069 2027.026367,390.708069 
	C2027.026367,388.830078 2027.025269,386.904816 2027.026367,384.979553 
	C2027.054199,335.161621 2027.108887,285.343689 2027.068359,235.525818 
	C2027.064453,230.717880 2026.872559,225.842133 2026.067627,221.117172 
	C2024.467773,211.727310 2017.953125,207.752792 2008.901855,210.610611 
	C1997.306396,214.271683 1990.701538,223.586090 1984.575317,233.211823 
	C1983.799683,234.430618 1984.199341,236.452118 1984.199219,238.101715 
	C1984.195435,287.086578 1984.210083,336.071411 1984.221680,385.056274 
	C1984.222046,386.853546 1984.221680,388.650818 1984.221680,391.000122 
	C1962.382446,391.000122 1940.941284,391.000122 1919.000000,391.000122 
z"/>
<path fill="#019EDE" opacity="1.000000" stroke="none" 
	d="
M1255.986084,108.942398 
	C1256.268921,110.458153 1256.837891,112.233040 1256.198608,112.997025 
	C1243.054565,128.706345 1229.772949,144.300491 1216.457642,159.989426 
	C1210.208862,156.253632 1204.220459,152.400894 1197.984619,149.002350 
	C1185.099976,141.980255 1171.311646,138.438049 1156.633301,140.482193 
	C1134.019531,143.631424 1122.083008,158.927551 1115.046387,178.909821 
	C1106.648071,202.759125 1105.723755,227.610260 1107.678101,252.448257 
	C1108.713989,265.613220 1110.783081,279.021454 1114.751221,291.572021 
	C1128.093384,333.770905 1165.055786,338.562531 1194.538086,324.124664 
	C1204.041260,319.470947 1212.711060,313.115540 1222.378540,307.158691 
	C1235.091919,323.250610 1248.248413,339.903412 1261.562500,356.755737 
	C1251.798462,366.895111 1240.852417,375.004608 1228.807129,381.426849 
	C1177.178223,408.953888 1125.869019,406.001770 1076.098145,377.254456 
	C1049.027588,361.618652 1032.322510,336.442566 1023.077271,306.996643 
	C1007.868469,258.556671 1006.990723,209.629059 1025.553223,162.019577 
	C1045.277954,111.429512 1083.562134,82.832222 1137.459961,75.982979 
	C1171.361328,71.674866 1203.952148,76.360695 1233.933350,93.743340 
	C1241.533691,98.149925 1248.468750,103.703995 1255.986084,108.942398 
z"/>
<path fill="#019EDE" opacity="1.000000" stroke="none" 
	d="
M442.339844,167.320679 
	C467.216309,149.307159 495.021118,144.481262 524.601990,146.707001 
	C547.380127,148.420883 568.352905,155.132233 586.421326,169.453232 
	C607.753357,186.360977 619.441833,209.055771 624.924194,235.279358 
	C629.227234,255.861954 628.765625,276.573456 626.523499,297.838623 
	C578.892639,297.838623 531.492859,297.838623 484.110779,297.838623 
	C483.527985,318.874359 496.824951,333.906677 517.403809,337.099884 
	C539.746338,340.566803 559.044006,333.342194 577.293396,321.571106 
	C579.374695,320.228638 581.434998,318.853546 584.028259,317.149841 
	C595.827332,333.048065 607.485718,348.756683 619.341003,364.730591 
	C608.412659,373.923096 596.662781,381.382721 583.796570,386.930389 
	C546.056335,403.203369 507.388062,404.114197 468.710480,391.501587 
	C435.782379,380.763885 414.070221,357.351166 403.268921,324.924957 
	C389.610687,283.922089 391.653015,243.285828 410.935364,204.124359 
	C418.199036,189.372223 428.963989,177.422318 442.339844,167.320679 
M526.496704,248.069122 
	C531.583069,248.069122 536.669495,248.069122 541.972717,248.069122 
	C542.150391,237.171814 541.084900,227.165726 537.647888,217.480255 
	C534.562561,208.785721 528.942200,203.101288 519.435791,201.867325 
	C508.901215,200.499924 499.162872,202.132507 492.682617,211.299072 
	C485.026459,222.128983 484.296387,235.003754 482.903595,248.068771 
	C497.578522,248.068771 511.538361,248.068771 526.496704,248.069122 
z"/>
<path fill="#019EDE" opacity="1.000000" stroke="none" 
	d="
M1732.877930,294.000000 
	C1732.924072,303.165680 1732.702148,311.843323 1733.088135,320.493835 
	C1733.513306,330.022156 1736.619019,338.188568 1747.060425,341.786682 
	C1741.162354,360.544312 1735.353638,379.017914 1729.372681,398.039429 
	C1703.787598,395.901428 1680.218872,390.266144 1666.099854,366.119446 
	C1660.787598,371.577789 1656.150269,377.281708 1650.596680,381.878479 
	C1631.571411,397.626038 1608.957153,401.081482 1585.249268,399.359680 
	C1566.723267,398.014221 1550.329956,391.296661 1537.133545,377.774567 
	C1519.440063,359.644379 1514.624023,337.412689 1517.512207,313.201935 
	C1521.558594,279.280975 1543.300659,260.885193 1574.064697,251.209656 
	C1592.986206,245.258698 1612.567139,243.741714 1632.309204,243.886627 
	C1637.110352,243.921860 1641.911987,243.891876 1647.199097,243.891876 
	C1647.646362,235.148422 1647.763794,226.937744 1644.085815,219.160614 
	C1641.603271,213.910950 1637.072144,211.338470 1631.680664,209.986145 
	C1616.196655,206.102280 1600.863403,208.281204 1585.667969,211.557404 
	C1574.638062,213.935471 1563.765869,217.044540 1552.302124,219.960220 
	C1546.085449,201.824509 1539.811523,183.522095 1533.144531,164.072662 
	C1545.814453,160.345428 1557.886230,156.204605 1570.245972,153.281158 
	C1595.820801,147.231964 1621.745850,144.433762 1648.068848,147.066254 
	C1663.887207,148.648178 1679.414673,151.389145 1693.775146,158.609833 
	C1715.824341,169.696381 1727.248291,188.365616 1730.988403,212.120224 
	C1732.201050,219.822495 1732.694702,227.697922 1732.795532,235.503464 
	C1733.045288,254.832779 1732.877930,274.167480 1732.877930,294.000000 
M1602.701172,322.530731 
	C1603.908691,328.753754 1606.894653,333.899231 1612.819336,336.478333 
	C1625.007568,341.784088 1639.716797,335.140259 1646.970337,324.825531 
	C1647.245972,324.433746 1647.473022,323.904388 1647.474243,323.438477 
	C1647.501953,312.185089 1647.495972,300.931641 1647.495972,288.951263 
	C1640.538208,289.315582 1634.264160,289.471771 1628.021973,290.003265 
	C1609.223877,291.603851 1600.159058,302.919037 1602.701172,322.530731 
z"/>
<path fill="#009EDE" opacity="1.000000" stroke="none" 
	d="
M2512.966553,336.000000 
	C2512.966553,251.585022 2512.966553,167.670044 2512.966553,83.460876 
	C2543.419189,83.460876 2573.460693,83.460876 2603.751953,83.460876 
	C2603.751953,185.881760 2603.751953,288.090118 2603.751953,390.651184 
	C2573.734863,390.651184 2543.687744,390.651184 2512.966553,390.651184 
	C2512.966553,372.661255 2512.966553,354.580627 2512.966553,336.000000 
z"/>
<path fill="#019EDE" opacity="1.000000" stroke="none" 
	d="
M1816.000000,154.988037 
	C1830.787842,154.988037 1845.075806,154.988037 1859.613647,154.988037 
	C1859.613647,233.738510 1859.613647,311.999359 1859.613647,390.630493 
	C1830.559814,390.630493 1801.526489,390.630493 1772.258545,390.630493 
	C1772.258545,312.254089 1772.258545,233.985550 1772.258545,154.988037 
	C1786.659790,154.988037 1801.079834,154.988037 1816.000000,154.988037 
z"/>
<path fill="#019EDE" opacity="1.000000" stroke="none" 
	d="
M1786.455322,33.402100 
	C1808.948608,18.669363 1839.369751,22.625986 1854.966797,42.436630 
	C1866.497925,57.083195 1868.194702,73.618675 1860.960815,90.422531 
	C1853.701782,107.284920 1839.832520,116.206985 1821.706177,117.898849 
	C1802.035767,119.734833 1785.440796,113.613556 1774.119263,96.709793 
	C1760.479248,76.344620 1765.958252,48.554276 1786.455322,33.402100 
z"/>
<path fill="#FCFEFF" opacity="1.000000" stroke="none" 
	d="
M2349.800293,200.639923 
	C2353.062744,183.712296 2356.223145,167.201904 2359.383545,150.691528 
	C2359.742432,150.659775 2360.101562,150.628021 2360.460693,150.596268 
	C2368.190186,189.370560 2375.919678,228.144852 2383.737793,267.362427 
	C2368.114014,267.362427 2352.781250,267.362427 2336.704590,267.362427 
	C2341.057129,245.151825 2345.377930,223.104492 2349.800293,200.639923 
z"/>
<path fill="#FDFEFF" opacity="1.000000" stroke="none" 
	d="
M525.997437,248.068939 
	C511.538361,248.068771 497.578522,248.068771 482.903595,248.068771 
	C484.296387,235.003754 485.026459,222.128983 492.682617,211.299072 
	C499.162872,202.132507 508.901215,200.499924 519.435791,201.867325 
	C528.942200,203.101288 534.562561,208.785721 537.647888,217.480255 
	C541.084900,227.165726 542.150391,237.171814 541.972717,248.069122 
	C536.669495,248.069122 531.583069,248.069122 525.997437,248.068939 
z"/>
<path fill="#FCFEFF" opacity="1.000000" stroke="none" 
	d="
M1602.572754,322.123993 
	C1600.159058,302.919037 1609.223877,291.603851 1628.021973,290.003265 
	C1634.264160,289.471771 1640.538208,289.315582 1647.495972,288.951263 
	C1647.495972,300.931641 1647.501953,312.185089 1647.474243,323.438477 
	C1647.473022,323.904388 1647.245972,324.433746 1646.970337,324.825531 
	C1639.716797,335.140259 1625.007568,341.784088 1612.819336,336.478333 
	C1606.894653,333.899231 1603.908691,328.753754 1602.572754,322.123993 
z"/>
</svg>