<svg version="1.1" id="Layer_1" xmlns="http://www.w3.org/2000/svg" xmlns:xlink="http://www.w3.org/1999/xlink" x="0px" y="0px"
	 width="100%" viewBox="0 0 680 620" enable-background="new 0 0 680 620" xml:space="preserve">
<path fill="#FEFFFF" opacity="1.000000" stroke="none" 
	d="
M378.000000,621.000000 
	C252.000015,621.000000 126.500046,621.000000 1.000051,621.000000 
	C1.000034,414.333405 1.000034,207.666779 1.000017,1.000134 
	C227.666565,1.000089 454.333130,1.000089 680.999756,1.000045 
	C680.999878,207.666519 680.999878,414.333038 680.999939,620.999756 
	C580.166687,621.000000 479.333344,621.000000 378.000000,621.000000 
M413.921539,504.373993 
	C415.434052,495.697479 416.916473,487.015594 418.464294,478.345398 
	C424.623016,443.847382 430.827332,409.357483 436.965424,374.855804 
	C441.578766,348.924744 446.115234,322.980011 450.688751,297.041901 
	C454.793640,273.761658 458.876312,250.477478 463.019592,227.204102 
	C465.380493,213.942703 467.843079,200.699417 470.259857,187.447983 
	C466.987732,250.167480 466.141998,312.853699 467.403839,375.573761 
	C468.665955,438.306030 470.016022,501.036591 471.327484,563.765137 
	C521.415100,563.765137 571.015625,563.765137 620.987000,563.765137 
	C608.707520,392.407837 596.447693,221.325134 584.189575,50.266724 
	C521.031128,50.266724 458.603821,50.266724 396.049988,50.266724 
	C378.521790,159.941284 361.031891,269.376190 343.542023,378.811127 
	C343.197571,378.809692 342.853119,378.808228 342.508698,378.806793 
	C323.080444,269.267975 303.652161,159.729141 284.229004,50.218964 
	C221.520035,50.218964 159.408478,50.218964 96.817238,50.218964 
	C84.543098,221.484192 72.282112,392.566010 60.024693,563.598022 
	C110.308678,563.598022 160.012939,563.598022 209.805237,563.598022 
	C210.308594,536.035095 210.736694,508.885040 211.313705,481.738098 
	C212.676987,417.600555 214.800690,353.459900 211.937820,289.318146 
	C210.809189,264.031677 208.899521,238.779236 207.260956,213.516785 
	C206.615692,203.568497 205.739441,193.635193 204.968369,183.695068 
	C206.100433,185.511368 206.612595,187.397354 206.974060,189.311813 
	C211.415329,212.834641 215.793716,236.369415 220.269012,259.885742 
	C227.137527,295.977692 234.061417,332.059113 240.975220,368.142426 
	C249.882019,414.627380 258.877838,461.095551 267.586365,507.617584 
	C268.363983,511.771881 269.941132,512.512878 273.709503,512.502625 
	C317.370667,512.383972 361.032288,512.426758 404.693787,512.426758 
	C412.138397,512.426758 412.138397,512.426697 413.921539,504.373993 
z"/>
<path fill="#009EDE" opacity="1.000000" stroke="none" 
	d="
M413.853149,504.803223 
	C412.138397,512.426697 412.138397,512.426758 404.693787,512.426758 
	C361.032288,512.426758 317.370667,512.383972 273.709503,512.502625 
	C269.941132,512.512878 268.363983,511.771881 267.586365,507.617584 
	C258.877838,461.095551 249.882019,414.627380 240.975220,368.142426 
	C234.061417,332.059113 227.137527,295.977692 220.269012,259.885742 
	C215.793716,236.369415 211.415329,212.834641 206.974060,189.311813 
	C206.612595,187.397354 206.100433,185.511368 204.968369,183.695068 
	C205.739441,193.635193 206.615692,203.568497 207.260956,213.516785 
	C208.899521,238.779236 210.809189,264.031677 211.937820,289.318146 
	C214.800690,353.459900 212.676987,417.600555 211.313705,481.738098 
	C210.736694,508.885040 210.308594,536.035095 209.805237,563.598022 
	C160.012939,563.598022 110.308678,563.598022 60.024693,563.598022 
	C72.282112,392.566010 84.543098,221.484192 96.817238,50.218964 
	C159.408478,50.218964 221.520035,50.218964 284.229004,50.218964 
	C303.652161,159.729141 323.080444,269.267975 342.508698,378.806793 
	C342.853119,378.808228 343.197571,378.809692 343.542023,378.811127 
	C361.031891,269.376190 378.521790,159.941284 396.049988,50.266724 
	C458.603821,50.266724 521.031128,50.266724 584.189575,50.266724 
	C596.447693,221.325134 608.707520,392.407837 620.987000,563.765137 
	C571.015625,563.765137 521.415100,563.765137 471.327484,563.765137 
	C470.016022,501.036591 468.665955,438.306030 467.403839,375.573761 
	C466.141998,312.853699 466.987732,250.167480 470.259857,187.447983 
	C467.843079,200.699417 465.380493,213.942703 463.019592,227.204102 
	C458.876312,250.477478 454.793640,273.761658 450.688751,297.041901 
	C446.115234,322.980011 441.578766,348.924744 436.965424,374.855804 
	C430.827332,409.357483 424.623016,443.847382 418.464294,478.345398 
	C416.916473,487.015594 415.434052,495.697479 413.853149,504.803223 
z"/>
</svg>