<svg xmlns="http://www.w3.org/2000/svg" version="1.1" xmlns:xlink="http://www.w3.org/1999/xlink" width="100%" height="1024"><svg version="1.1" id="SvgjsSvg1001" xmlns="http://www.w3.org/2000/svg" xmlns:xlink="http://www.w3.org/1999/xlink" x="0px" y="0px" width="100%" viewBox="0 0 1024 1024" enable-background="new 0 0 1024 1024" xml:space="preserve">
<path fill="#FFFFFF" opacity="1.000000" stroke="none" d="
M598.000000,1025.000000 
	C398.666656,1025.000000 199.833328,1025.000000 1.000000,1025.000000 
	C1.000000,683.666687 1.000000,342.333344 1.000000,1.000000 
	C342.333344,1.000000 683.666687,1.000000 1025.000000,1.000000 
	C1025.000000,342.333344 1025.000000,683.666687 1025.000000,1025.000000 
	C882.833313,1025.000000 740.666687,1025.000000 598.000000,1025.000000 
M169.073303,790.284119 
	C168.792465,789.446289 168.511642,788.608459 168.190857,787.902588 
	C168.190857,787.902588 168.326477,787.877686 168.208252,787.077393 
	C167.170334,783.672852 166.132401,780.268372 165.065826,776.960449 
	C165.065826,776.960449 165.166473,776.965393 165.103134,776.135315 
	C164.611755,774.355530 164.120361,772.575806 163.710129,771.089966 
	C156.018509,771.089966 149.111954,771.089966 141.694626,771.089966 
	C141.558228,773.416931 141.426315,775.667603 141.063599,778.821960 
	C140.439972,788.780212 139.767517,798.735718 139.204941,808.697388 
	C138.483322,821.475708 137.850037,834.258972 137.033554,847.933716 
	C137.033554,852.172180 137.033554,856.410645 137.033554,860.790161 
	C142.087036,860.790161 147.313217,860.790161 152.715088,860.790161 
	C153.401138,845.056396 154.077393,829.546875 154.946854,813.113098 
	C154.946854,805.994446 154.946854,798.875793 154.946854,791.757141 
	C156.060364,792.727356 156.596497,793.839417 156.946442,795.007324 
	C161.296677,809.525574 165.544983,824.074768 169.971588,838.569580 
	C174.197601,852.407654 170.835312,849.602600 185.453659,850.074219 
	C188.608612,850.175964 189.588699,848.997009 190.451630,846.118530 
	C195.464783,829.396179 200.737091,812.751160 205.984924,796.099915 
	C206.439331,794.658081 207.352036,793.360718 207.991135,792.931946 
	C208.054825,800.942078 208.118515,808.952271 208.040024,817.880005 
	C208.599609,832.136353 209.159180,846.392639 209.722305,860.739258 
	C215.288147,860.739258 220.514862,860.739258 225.964996,860.739258 
	C225.964996,858.646973 226.045837,856.840088 225.952103,855.042297 
	C225.260483,841.778870 224.573669,828.514954 223.806702,815.255737 
	C223.126328,803.493530 222.344772,791.737122 221.672638,779.174011 
	C221.368713,776.591003 221.064789,774.007996 220.710281,770.995117 
	C214.503693,770.995117 208.287872,770.896484 202.084198,771.125793 
	C201.346832,771.153076 200.675690,772.971558 199.434128,774.459900 
	C193.506592,794.134277 187.579056,813.808655 181.419724,834.252319 
	C178.665161,824.244568 176.138382,815.064331 173.387268,805.128113 
	C172.708847,803.006042 172.030441,800.883972 171.412292,798.828308 
	C171.412292,798.828308 171.450928,798.747375 171.307632,797.987854 
	C170.552872,795.632019 169.798111,793.276123 169.008469,790.981873 
	C169.008469,790.981873 169.079117,790.986755 169.073303,790.284119 
M838.938354,859.038391 
	C838.938354,859.038391 838.846313,859.041931 838.949402,859.912781 
	C844.543274,860.409363 850.137146,860.905884 856.570007,861.476929 
	C855.086426,857.686279 854.096130,855.155945 853.103638,851.870056 
	C845.245361,827.572815 837.174194,803.340881 829.687561,778.929626 
	C827.949280,773.261902 825.453674,771.105042 819.698853,771.914307 
	C816.434143,772.373413 813.021667,771.738342 809.737793,772.124207 
	C808.371582,772.284790 806.398804,773.568115 806.002136,774.770020 
	C797.019775,801.983032 788.220703,829.256531 779.378967,856.515991 
	C778.427551,859.449219 779.311768,861.023987 782.539551,861.003662 
	C785.535645,860.984741 788.576294,861.302063 791.510010,860.873596 
	C793.018066,860.653320 795.175476,859.409912 795.597290,858.147156 
	C797.677429,851.919861 799.274963,845.531372 801.963867,839.046692 
	C811.969238,839.074219 821.974548,839.101685 832.197144,839.836548 
	C833.751343,844.234253 835.305481,848.632019 836.911987,853.774048 
	C837.581055,855.558899 838.250183,857.343689 838.938354,859.038391 
M327.709778,826.171326 
	C327.687866,822.132690 327.665924,818.094055 327.945374,813.410095 
	C331.147217,808.592957 334.822632,804.416626 341.345520,805.074219 
	C346.427704,805.586670 348.065582,809.627991 349.567230,814.699463 
	C349.567230,830.065247 349.567230,845.431030 349.567230,860.769470 
	C355.642517,860.769470 360.735992,860.769470 366.171509,860.769470 
	C366.171509,846.778259 366.132263,833.024353 366.208191,819.271179 
	C366.221649,816.832275 366.714722,814.395996 367.521454,811.554138 
	C370.606079,807.063232 374.602936,804.066833 380.302551,805.173767 
	C385.520386,806.187195 386.695648,810.653625 387.614197,816.006226 
	C387.614197,830.904663 387.614197,845.803162 387.614197,860.708008 
	C393.576935,860.708008 398.821075,860.708008 403.779877,860.708008 
	C403.779877,843.281677 403.779877,826.159180 403.841705,808.277832 
	C402.280609,800.522888 398.939209,793.821167 390.520142,792.212219 
	C379.773468,790.158569 370.667175,793.485291 364.079987,803.298584 
	C360.335876,795.210388 354.480011,791.632385 345.815521,791.794434 
	C337.499054,791.950073 331.693604,796.131653 326.519928,802.088257 
	C326.044769,800.399780 325.697876,799.166992 325.189880,797.057373 
	C324.183777,795.984985 323.267059,794.112061 322.155029,793.987915 
	C318.594452,793.590149 314.961517,793.840149 311.318756,793.840149 
	C311.318756,816.427856 311.318756,838.613220 311.318756,860.767822 
	C316.783051,860.767822 321.917206,860.767822 327.597717,860.660706 
	C327.573364,860.128235 327.549011,859.595825 327.700226,858.361145 
	C327.646423,857.884888 327.592621,857.408630 327.764740,856.028320 
	C327.684967,846.382507 327.605225,836.736694 327.709778,826.171326 
M645.448364,860.796570 
	C650.864502,860.796570 656.280640,860.796570 661.668579,860.796570 
	C661.668579,838.289856 661.668579,816.124939 661.668579,793.813721 
	C659.174255,793.813721 657.006775,793.667847 654.866699,793.847656 
	C651.618896,794.120544 648.390137,794.619568 645.013550,795.947754 
	C645.066956,817.291199 645.120422,838.634644 645.448364,860.796570 
M297.654541,831.391052 
	C297.780609,827.737915 298.239227,824.060181 297.971649,820.436096 
	C297.096497,808.583191 292.505737,798.689087 280.836853,794.141418 
	C269.125366,789.577148 257.980621,791.386475 248.454071,799.965454 
	C239.740631,807.812012 237.582336,818.090515 237.843872,829.335632 
	C238.169800,843.349182 243.488998,854.487061 256.824707,859.842957 
	C270.198120,865.213989 283.061493,863.077454 294.855103,854.008301 
	C292.992889,850.831787 291.271698,847.895813 289.752075,845.303711 
	C285.767151,846.786072 282.156158,848.511169 278.352112,849.472412 
	C267.273224,852.271667 258.061951,847.173035 255.497299,836.887024 
	C255.211151,835.739380 256.468079,834.206970 257.939240,832.984619 
	C269.498474,832.993347 281.057892,833.037170 292.616669,832.967957 
	C294.123810,832.958984 295.627441,832.368530 297.654541,831.391052 
M697.940063,812.715759 
	C699.089844,811.518555 700.214294,810.295776 701.394043,809.128784 
	C705.096252,805.466919 709.305176,803.747742 714.453552,805.859680 
	C719.558899,807.954041 720.577515,812.426086 720.949646,817.215576 
	C721.078308,818.871765 720.971741,820.546265 720.971741,822.212402 
	C720.971924,834.997559 720.971802,847.782654 720.971802,860.633057 
	C726.769104,860.633057 732.116760,860.633057 737.027100,860.633057 
	C737.027100,843.594604 737.373352,826.948669 736.916443,810.324768 
	C736.556885,797.241150 727.162048,790.160767 714.106689,791.759583 
	C706.751648,792.660339 701.358887,796.721863 696.300110,801.924744 
	C695.653381,798.979370 695.101929,796.467773 694.558044,793.990601 
	C689.667358,793.990601 685.065613,793.990601 680.164612,793.990601 
	C680.164612,815.150513 680.164612,836.096863 680.033691,857.912537 
	C680.669067,858.942749 681.259644,860.829834 681.947021,860.865784 
	C686.864136,861.122925 691.800964,861.003174 696.992798,861.003174 
	C696.992798,857.936157 696.972168,855.462769 696.996277,852.989807 
	C697.126160,839.681030 697.267273,826.372437 697.940063,812.715759 
M539.803894,814.985046 
	C539.803894,830.226562 539.803894,845.468079 539.803894,861.514221 
	C546.015198,860.957703 551.427856,860.472778 556.979858,859.061218 
	C556.665466,842.764709 556.762024,826.446655 555.907288,810.178528 
	C555.217712,797.052856 545.608093,789.485168 532.873108,791.923218 
	C527.007324,793.046204 521.532776,796.212280 516.000488,798.404541 
	C516.000488,793.735901 516.021729,788.107361 515.994629,782.479126 
	C515.966492,776.654968 515.891479,770.830994 515.550415,764.194397 
	C510.127716,764.194397 504.705017,764.194397 499.277283,764.194397 
	C499.277283,796.627502 499.277283,828.666138 499.277283,861.474548 
	C505.021912,860.956726 510.433502,860.468933 515.987976,859.055908 
	C515.993469,845.569214 515.996399,832.082520 516.005554,818.595825 
	C516.010132,811.774170 520.454834,806.089417 526.575256,805.060425 
	C533.355652,803.920471 536.934204,806.388611 539.803894,814.985046 
M836.607300,400.021698 
	C832.714478,385.327332 826.643738,371.622772 817.408020,359.505798 
	C815.016235,356.367828 815.257019,353.362000 815.256226,349.830566 
	C815.253967,339.597412 816.535278,328.870667 813.984192,319.217224 
	C803.188721,278.365448 775.461548,252.836014 736.917175,237.852676 
	C735.127930,237.157166 732.918274,235.791962 732.264709,234.185303 
	C719.942627,203.896561 698.195557,183.655685 667.289429,173.444336 
	C659.433044,170.848602 651.369141,168.581604 642.645447,169.788330 
	C638.220093,170.400482 633.371338,171.250092 629.025940,167.361588 
	C600.794067,142.098099 567.950928,134.936966 531.418945,143.483200 
	C518.237732,146.566772 506.310730,152.478943 496.145508,160.832443 
	C492.341888,158.190475 489.063843,155.613312 485.512115,153.495010 
	C461.440582,139.138245 435.528839,136.977936 408.686859,142.649399 
	C381.796661,148.331024 358.501831,160.493454 341.187378,182.446167 
	C338.922729,185.317490 336.734528,185.894302 333.360046,186.111725 
	C325.635651,186.609421 317.632324,186.775269 310.318146,188.983398 
	C268.123199,201.721924 240.337128,229.172058 228.063217,271.766602 
	C227.121292,275.035400 225.690414,277.216827 222.678024,278.857635 
	C213.368362,283.928528 205.204636,290.583801 199.024918,299.178558 
	C181.999603,322.857483 174.860016,349.249512 177.872513,378.403473 
	C180.523560,404.059509 190.547348,426.383850 208.398758,444.801636 
	C235.370773,472.629547 269.533844,483.979065 307.368225,485.960876 
	C315.968109,486.411346 324.611725,486.027130 333.568665,486.027130 
	C333.547760,485.936279 333.779724,486.559479 333.824921,487.195984 
	C335.535492,511.275421 346.647369,530.487061 364.881195,545.655457 
	C387.596954,564.552368 414.706482,571.122559 443.487335,571.905151 
	C459.137665,572.330627 474.554260,569.864380 489.592957,565.437561 
	C492.361938,564.622498 494.012177,565.143616 496.031616,567.307129 
	C505.463379,577.411621 514.719727,587.742859 524.848572,597.118225 
	C538.227112,609.501526 548.642578,623.671570 556.108948,640.309814 
	C563.146118,655.991394 570.991577,671.310669 578.499573,686.780518 
	C581.676025,693.325500 586.515076,697.971252 594.067749,698.285583 
	C605.033081,698.742126 616.071472,699.423340 626.982666,698.651794 
	C638.067749,697.867981 644.373108,691.495361 645.138245,680.444397 
	C645.567932,674.238464 644.094299,667.641357 642.260864,661.589294 
	C637.758545,646.728210 632.551147,632.080750 627.462891,616.855347 
	C646.743042,622.616028 665.861206,623.365784 685.102356,621.024109 
	C712.983582,617.630859 736.759766,605.832825 755.553345,584.821350 
	C767.490173,571.475769 775.387573,556.140442 774.904236,537.661011 
	C774.795044,533.487183 776.334656,531.695923 779.853638,529.958557 
	C819.796326,510.238708 837.695496,476.487457 839.777893,433.441437 
	C840.300537,422.637543 837.922607,411.693329 836.607300,400.021698 
M436.980072,810.781372 
	C437.368988,808.168091 437.527924,805.495361 438.185760,802.951660 
	C441.438934,790.372742 450.586121,783.408142 462.931641,784.867371 
	C468.196930,785.489685 473.268646,787.749939 479.016510,789.438660 
	C481.003723,786.593872 483.506195,783.011475 485.972351,779.481079 
	C470.909027,765.023682 441.642273,767.548401 428.712952,784.115845 
	C417.440613,798.560059 416.784332,815.180664 420.242462,831.955933 
	C423.247284,846.532227 432.221436,856.954895 447.081482,861.032959 
	C461.410919,864.965515 474.515778,862.369751 486.236420,852.705811 
	C483.882812,849.143738 481.737488,845.896973 479.595032,842.654480 
	C477.474243,843.816772 475.942719,844.833130 474.279572,845.539368 
	C461.731384,850.868347 444.637054,849.240479 440.036957,833.631592 
	C437.973755,826.630859 437.908325,819.041443 436.980072,810.781372 
M622.141296,803.504517 
	C618.228699,800.349548 614.777893,796.018677 610.314636,794.266174 
	C598.227295,789.520142 586.384766,792.250122 574.646606,797.597656 
	C576.238953,801.669128 577.714478,805.442078 579.030212,808.806335 
	C584.437012,807.521606 589.181641,805.953918 594.046997,805.334534 
	C602.822937,804.217285 611.725037,809.406250 608.333008,819.956299 
	C606.548706,819.956299 604.531372,819.676575 602.619690,820.007446 
	C596.301392,821.101013 589.733459,821.631714 583.788940,823.814941 
	C572.889160,827.817871 567.943115,837.102173 570.398132,846.778564 
	C573.178223,857.736816 581.768677,863.935547 593.575256,861.988464 
	C599.610718,860.993164 605.256226,857.633423 611.204102,855.292786 
	C613.810547,860.288635 619.975464,863.344849 626.239441,861.586182 
	C633.151489,859.645630 628.283813,853.255981 631.618164,849.333923 
	C629.117310,849.036011 627.714661,848.868958 625.960510,848.659973 
	C625.960510,838.539917 626.320801,828.721680 625.810730,818.948853 
	C625.549988,813.952942 623.729919,809.038513 622.141296,803.504517 
M664.289001,769.166077 
	C662.226074,762.967285 658.412292,760.742004 651.128052,762.047729 
	C646.755493,762.831604 644.235229,765.775452 643.941528,770.304382 
	C643.542297,776.461670 647.411011,780.486877 653.852112,780.746216 
	C660.207520,781.002197 664.169128,776.964844 664.289001,769.166077 
M866.736023,814.500000 
	C866.736023,829.895996 866.736023,845.291992 866.736023,860.776917 
	C872.736328,860.776917 878.153076,860.776917 883.608459,860.776917 
	C883.608459,830.731567 883.608459,800.917725 883.608459,771.293213 
	C877.783142,771.293213 872.348816,771.293213 866.734314,771.293213 
	C866.734314,785.566589 866.734314,799.533325 866.736023,814.500000 
z"></path>
<path fill="#0197DD" opacity="1.000000" stroke="none" d="
M836.742493,400.417664 
	C837.922607,411.693329 840.300537,422.637543 839.777893,433.441437 
	C837.695496,476.487457 819.796326,510.238708 779.853638,529.958557 
	C776.334656,531.695923 774.795044,533.487183 774.904236,537.661011 
	C775.387573,556.140442 767.490173,571.475769 755.553345,584.821350 
	C736.759766,605.832825 712.983582,617.630859 685.102356,621.024109 
	C665.861206,623.365784 646.743042,622.616028 627.462891,616.855347 
	C632.551147,632.080750 637.758545,646.728210 642.260864,661.589294 
	C644.094299,667.641357 645.567932,674.238464 645.138245,680.444397 
	C644.373108,691.495361 638.067749,697.867981 626.982666,698.651794 
	C616.071472,699.423340 605.033081,698.742126 594.067749,698.285583 
	C586.515076,697.971252 581.676025,693.325500 578.499573,686.780518 
	C570.991577,671.310669 563.146118,655.991394 556.108948,640.309814 
	C548.642578,623.671570 538.227112,609.501526 524.848572,597.118225 
	C514.719727,587.742859 505.463379,577.411621 496.031616,567.307129 
	C494.012177,565.143616 492.361938,564.622498 489.592957,565.437561 
	C474.554260,569.864380 459.137665,572.330627 443.487335,571.905151 
	C414.706482,571.122559 387.596954,564.552368 364.881195,545.655457 
	C346.647369,530.487061 335.535492,511.275421 333.824921,487.195984 
	C333.779724,486.559479 333.547760,485.936279 333.568665,486.027130 
	C324.611725,486.027130 315.968109,486.411346 307.368225,485.960876 
	C269.533844,483.979065 235.370773,472.629547 208.398758,444.801636 
	C190.547348,426.383850 180.523560,404.059509 177.872513,378.403473 
	C174.860016,349.249512 181.999603,322.857483 199.024918,299.178558 
	C205.204636,290.583801 213.368362,283.928528 222.678024,278.857635 
	C225.690414,277.216827 227.121292,275.035400 228.063217,271.766602 
	C240.337128,229.172058 268.123199,201.721924 310.318146,188.983398 
	C317.632324,186.775269 325.635651,186.609421 333.360046,186.111725 
	C336.734528,185.894302 338.922729,185.317490 341.187378,182.446167 
	C358.501831,160.493454 381.796661,148.331024 408.686859,142.649399 
	C435.528839,136.977936 461.440582,139.138245 485.512115,153.495010 
	C489.063843,155.613312 492.341888,158.190475 496.145508,160.832443 
	C506.310730,152.478943 518.237732,146.566772 531.418945,143.483200 
	C567.950928,134.936966 600.794067,142.098099 629.025940,167.361588 
	C633.371338,171.250092 638.220093,170.400482 642.645447,169.788330 
	C651.369141,168.581604 659.433044,170.848602 667.289429,173.444336 
	C698.195557,183.655685 719.942627,203.896561 732.264709,234.185303 
	C732.918274,235.791962 735.127930,237.157166 736.917175,237.852676 
	C775.461548,252.836014 803.188721,278.365448 813.984192,319.217224 
	C816.535278,328.870667 815.253967,339.597412 815.256226,349.830566 
	C815.257019,353.362000 815.016235,356.367828 817.408020,359.505798 
	C826.643738,371.622772 832.714478,385.327332 836.742493,400.417664 
M336.974915,359.977173 
	C336.974915,359.977173 336.897247,359.971252 337.394043,359.755737 
	C337.587769,359.459381 337.781525,359.162994 338.091125,358.425110 
	C338.264893,358.142151 338.517517,357.990692 339.359711,357.773712 
	C339.562744,357.479462 339.765747,357.185211 339.974518,356.974548 
	C339.974518,356.974548 339.890869,356.969086 340.395752,356.752350 
	C340.585876,356.448090 340.775970,356.143829 341.152008,355.321106 
	C341.713470,354.869324 342.274933,354.417572 343.358429,353.760651 
	C343.561737,353.456268 343.765015,353.151886 344.090027,352.408478 
	C344.266418,352.127014 344.520569,351.979980 345.360687,351.768951 
	C345.562317,351.475037 345.763947,351.181122 345.972412,350.971893 
	C345.972412,350.971893 345.887634,350.966431 346.391968,350.748199 
	C346.583038,350.444427 346.774109,350.140656 347.184601,349.284058 
	C348.068939,348.510071 348.953308,347.736084 350.537445,346.906982 
	C351.011169,346.214935 351.484894,345.522888 352.081360,344.399475 
	C352.257416,344.124969 352.508331,343.980743 353.359375,343.750763 
	C353.557312,343.437561 353.755280,343.124359 354.203796,342.230499 
	C355.736664,340.804199 357.269501,339.377869 359.331024,337.768127 
	C359.541351,337.469788 359.751678,337.171417 359.966858,336.967712 
	C359.966858,336.967712 359.872589,336.958099 360.377899,336.760040 
	C360.570679,336.463074 360.763428,336.166077 360.963348,335.964569 
	C360.963348,335.964569 360.867981,335.955780 361.376495,335.758820 
	C361.566956,335.458893 361.757446,335.158936 361.958466,334.957886 
	C361.958466,334.957886 361.859344,334.950012 362.371674,334.749115 
	C362.558868,334.443542 362.746033,334.137939 362.944672,333.945862 
	C362.944672,333.945862 362.831329,333.933075 363.355957,333.748657 
	C363.548370,333.442719 363.740784,333.136749 363.951996,332.950409 
	C363.951996,332.950409 363.830933,332.947723 364.382782,332.690277 
	C364.554382,332.332947 364.726013,331.975586 365.178650,331.038269 
	C366.597198,329.632019 368.059479,328.266907 369.427307,326.812958 
	C379.476410,316.131195 380.066589,301.515106 371.288055,292.753143 
	C369.802979,297.344177 368.946442,302.597534 366.475586,306.930237 
	C363.764282,311.684662 356.981171,313.681458 352.443756,311.363098 
	C349.120636,309.665131 345.891724,306.826569 343.894135,303.686371 
	C339.510468,296.795288 343.390442,290.419800 346.840027,284.230316 
	C339.769989,283.228638 333.695282,285.073975 328.990692,289.614960 
	C312.213806,305.808502 295.595642,322.171173 279.154419,338.705505 
	C272.314728,345.583923 269.196228,353.948425 272.401672,364.396393 
	C275.539795,361.798065 277.914093,358.550720 280.730621,355.747742 
	C284.009003,352.485138 287.362061,349.107513 291.251221,346.697083 
	C296.071167,343.709778 301.422729,344.060181 306.290588,347.201050 
	C310.783020,350.099731 312.092682,354.717102 310.909485,359.439453 
	C309.990936,363.105530 308.006592,366.790619 305.597717,369.731537 
	C301.791748,374.378143 297.233307,378.408417 292.993317,382.699524 
	C293.170990,383.170959 293.348694,383.642395 293.526367,384.113831 
	C298.242371,383.889130 303.002411,383.993073 307.664825,383.368439 
	C316.260193,382.216949 320.912872,375.112946 327.354462,369.756104 
	C327.557800,369.455017 327.761108,369.153961 328.087158,368.412262 
	C328.263428,368.129700 328.517853,367.980469 329.363953,367.753082 
	C329.564880,367.450836 329.765778,367.148590 330.084930,366.410095 
	C330.254089,366.126068 330.503784,365.976746 331.349304,365.767456 
	C331.553833,365.471649 331.758362,365.175812 331.968292,364.968750 
	C331.968292,364.968750 331.879730,364.960358 332.380737,364.761353 
	C332.573853,364.467194 332.766968,364.173035 332.967316,363.967255 
	C332.967316,363.967255 332.878937,363.959991 333.380188,363.761902 
	C333.574219,363.468384 333.768250,363.174835 333.968628,362.969025 
	C333.968628,362.969025 333.881012,362.961578 334.382812,362.764130 
	C334.575989,362.469971 334.769196,362.175842 334.969177,361.969269 
	C334.969177,361.969269 334.881622,361.962402 335.383026,361.763947 
	C335.575836,361.469574 335.768677,361.175201 335.968903,360.968445 
	C335.968903,360.968445 335.881226,360.961914 336.379272,360.765717 
	C336.576294,360.476959 336.773285,360.188171 336.974915,359.977173 
M511.385468,545.253967 
	C511.698517,545.474915 512.011597,545.695801 512.876648,546.275085 
	C522.557007,556.538513 531.694031,567.391357 542.042236,576.930237 
	C558.435974,592.041748 571.418945,609.278687 580.188721,629.811707 
	C585.576050,642.425232 591.513977,654.807434 597.409607,667.195984 
	C598.297241,669.061218 600.135437,671.508240 601.826538,671.765930 
	C607.215820,672.587280 612.743225,672.502747 618.484619,672.781128 
	C618.233032,671.430054 618.166321,670.287231 617.804932,669.246826 
	C610.168640,647.259277 602.656250,625.226746 594.772766,603.327881 
	C590.550598,591.599609 583.099792,582.226318 572.373474,575.570923 
	C569.995117,574.095154 567.723999,572.301453 565.786194,570.286194 
	C558.333069,562.535217 561.367859,550.804443 571.697266,547.894470 
	C576.289001,546.600830 581.405762,546.911865 585.798767,545.227905 
	C594.080078,542.053467 601.851135,537.545837 610.136597,534.384827 
	C616.522766,531.948425 623.299316,529.646362 630.030151,529.195740 
	C642.300842,528.374390 654.695251,529.503723 666.984985,528.839233 
	C682.193176,528.017090 696.278381,523.039307 706.085632,510.940399 
	C711.480957,504.284302 714.834595,495.879303 718.590515,488.015289 
	C722.211060,480.434753 729.692810,477.492798 737.062744,481.425507 
	C742.971375,484.578461 745.495789,490.527557 743.327820,496.977844 
	C741.681763,501.875580 739.646118,506.642395 737.610596,511.916260 
	C758.063049,513.123474 774.195496,505.017426 788.597900,492.768341 
	C799.424438,483.560486 804.864624,470.875977 810.371216,457.596008 
	C810.819275,455.319305 811.267273,453.042572 811.726196,450.896851 
	C811.726196,450.896851 811.610229,450.835052 812.351074,450.529541 
	C815.881714,438.210327 815.951294,425.690063 813.731628,413.227509 
	C812.807800,408.040436 810.416321,403.114807 808.151184,397.629089 
	C804.385437,386.845398 798.321289,377.384705 791.037170,368.718964 
	C786.802856,363.681549 785.590942,358.494537 787.662781,352.152618 
	C790.596252,343.173157 791.137085,333.904358 788.926025,324.672607 
	C786.647888,315.160980 782.457031,306.537048 775.665894,298.159637 
	C774.290710,307.294647 770.868713,314.473145 765.149536,320.491974 
	C759.187134,326.766815 753.292603,333.108582 747.229797,339.284943 
	C738.625000,348.050781 738.395691,348.872437 743.074707,360.346954 
	C743.261353,360.804779 743.558411,361.216431 743.761658,361.668671 
	C751.540039,378.968536 763.780823,391.913330 780.802185,400.488434 
	C789.232910,404.735779 791.534607,413.637512 786.773010,421.059448 
	C782.257446,428.097870 773.199158,429.553009 765.908630,424.417084 
	C764.188171,423.205078 762.453430,422.013367 760.585327,420.715088 
	C759.146606,422.469604 757.799561,423.942657 756.641357,425.551636 
	C747.528625,438.211304 736.728455,449.010498 721.178650,452.956909 
	C709.038757,456.037933 696.570801,457.880035 684.196838,459.964966 
	C676.585693,461.247437 668.877075,461.951141 661.433472,462.886902 
	C661.021545,465.610687 660.928162,467.785828 660.347839,469.822235 
	C655.020752,488.515503 642.014771,500.009888 624.268127,505.878937 
	C603.922974,512.607300 583.190063,518.163147 562.626587,524.231689 
	C553.269348,526.993103 543.810120,528.072632 534.153564,525.996826 
	C517.020386,522.313599 503.921753,513.459473 497.509705,496.583374 
	C496.423065,493.723358 495.060181,493.343536 492.534576,493.140350 
	C486.448029,492.650696 480.400299,491.629395 474.310394,491.263153 
	C472.636108,491.162506 470.033752,492.127930 469.273376,493.430695 
	C462.065979,505.779480 449.963196,511.867798 438.003418,517.946838 
	C431.926575,521.035645 424.956482,517.827881 421.669556,511.574554 
	C418.365356,505.288361 419.758087,498.941010 425.591827,494.964569 
	C429.555206,492.263031 434.008118,490.230133 437.764221,487.288116 
	C441.418610,484.425751 444.464386,480.786346 446.559723,478.700409 
	C441.047333,469.784668 436.030365,462.437622 431.862671,454.636871 
	C429.426331,450.076904 430.804443,445.217651 434.234741,441.245911 
	C437.791168,437.128174 442.159912,435.636719 447.613617,436.873627 
	C452.372406,437.952881 454.588196,441.481140 456.959961,445.147003 
	C465.738129,458.714600 476.789337,468.300446 494.795929,466.022980 
	C498.188324,441.534790 513.770081,428.652496 536.458130,422.460602 
	C548.387207,419.204987 560.217285,415.578369 572.052368,411.988556 
	C587.139709,407.412262 602.024048,401.761505 618.279968,403.971741 
	C621.526489,404.413177 624.954651,404.363525 627.980469,405.437775 
	C641.520447,410.244781 650.957947,419.513428 656.761658,432.654266 
	C657.366882,434.024750 659.456116,435.828583 660.647583,435.685760 
	C675.124146,433.950012 689.594604,432.098938 704.000305,429.852356 
	C720.375671,427.298645 731.759583,417.617401 739.541199,404.789642 
	C731.880676,392.846161 724.689270,381.634064 717.408997,370.283447 
	C704.707703,382.444397 689.695496,389.977753 671.256104,389.026031 
	C652.475037,388.056671 638.896484,378.634125 628.746826,362.003235 
	C609.828125,368.861603 590.822998,375.397461 572.107788,382.678345 
	C562.068726,386.583893 556.669922,385.149414 551.971008,375.364624 
	C545.411743,361.705902 534.951965,355.523682 519.880371,357.097656 
	C510.715759,358.054718 502.883148,361.834808 497.541809,370.304077 
	C501.278717,370.095032 504.400177,369.803955 507.524567,369.768219 
	C515.798889,369.673615 520.875793,374.332489 521.228088,382.203674 
	C521.574036,389.933655 516.805481,394.968475 508.769287,396.096191 
	C499.757446,397.360809 490.820374,399.148468 481.830933,400.584534 
	C470.088257,402.460480 458.375763,404.827332 446.553253,405.785828 
	C439.733765,406.338745 432.739624,404.225708 425.794952,403.846954 
	C407.759430,402.863312 391.834045,415.918182 390.272949,433.735779 
	C389.628479,441.091370 386.466339,445.172211 380.248505,448.225006 
	C372.095551,452.227814 365.899780,458.514740 362.300018,466.887909 
	C355.725739,482.179779 358.811401,496.817932 367.723816,509.852081 
	C382.334106,531.219116 404.034271,540.920105 429.246857,544.994080 
	C433.161774,545.052551 437.076691,545.111023 441.665741,545.037720 
	C442.118652,545.085876 442.571533,545.134094 443.667694,545.697144 
	C448.944031,545.791138 454.289886,546.457825 459.478333,545.827881 
	C465.380981,545.111267 471.142975,543.236450 476.961121,541.946777 
	C476.961121,541.946777 476.883331,541.921387 477.753571,541.965271 
	C480.316833,541.549500 483.014618,541.509094 485.418152,540.647705 
	C492.666382,538.050110 499.893066,536.775146 507.501953,539.497375 
	C507.501953,539.497375 507.622711,539.509827 507.423645,540.131592 
	C507.950134,540.420715 508.476624,540.709839 509.000000,541.000000 
	C509.000000,541.000000 509.001190,540.996338 509.070038,541.692322 
	C509.880432,542.605286 510.690826,543.518250 511.504791,544.553589 
	C511.504791,544.553589 511.441742,544.658508 511.385468,545.253967 
M399.992706,382.004150 
	C399.992706,382.004150 399.943390,381.974823 400.726074,381.977814 
	C403.445221,380.878174 406.164398,379.778534 408.920471,378.811981 
	C408.920471,378.811981 408.783905,378.791382 409.681213,378.928040 
	C420.399567,377.206207 430.968475,378.599548 441.655304,379.747314 
	C447.621887,380.388092 453.852478,378.570160 459.957367,377.942841 
	C459.957367,377.942841 459.879517,377.914307 460.702545,377.962433 
	C462.795990,376.951355 464.889435,375.940247 466.982269,374.155457 
	C472.669495,353.229065 485.382629,338.228302 506.342010,332.431702 
	C532.340210,325.241516 554.836487,331.626007 571.024902,353.714111 
	C587.802979,348.239288 604.076050,342.849640 620.415771,337.670044 
	C623.401550,336.723541 624.101379,335.136444 623.996826,332.260284 
	C623.580261,320.799164 627.180786,310.607880 635.095459,302.351135 
	C646.846924,290.091919 658.879944,278.097839 670.964294,266.164307 
	C678.632385,258.591919 688.013184,254.235397 698.734558,253.017548 
	C707.009888,252.077530 709.090210,249.333099 705.764832,241.837936 
	C697.878540,224.063019 686.635498,209.294434 667.928040,201.575424 
	C651.300537,194.714630 634.510376,191.712616 617.534546,200.037781 
	C606.559631,205.419998 598.280029,213.655884 593.094543,224.852142 
	C609.961914,236.080154 617.840332,251.264969 617.110535,271.072998 
	C616.537842,286.614075 605.177673,303.281097 590.618469,309.100037 
	C584.648193,311.486145 578.211975,309.475159 574.414795,304.037140 
	C570.647888,298.642517 570.832092,291.610748 575.429321,287.167480 
	C578.379944,284.315643 582.396118,282.536743 585.217285,279.590118 
	C587.440186,277.268311 589.652954,274.016937 589.987793,270.971527 
	C591.233215,259.642822 585.509766,250.645477 575.082031,245.977554 
	C568.242188,242.915695 561.121399,243.378326 554.086548,244.642075 
	C545.677795,246.152634 539.513062,242.968079 537.329712,235.373383 
	C535.430359,228.766861 539.591003,221.469070 547.200867,219.335251 
	C552.090576,217.964172 557.273132,217.348709 562.360413,217.082657 
	C565.265503,216.930725 566.981079,216.157257 568.156921,213.566681 
	C575.033997,198.415558 587.454773,188.525665 600.854980,179.241898 
	C599.923523,178.577820 599.038452,177.860886 598.074707,177.272949 
	C587.554077,170.854752 576.054321,167.522308 563.830444,166.597397 
	C547.872131,165.389938 532.712097,168.151306 519.218323,177.043289 
	C510.613251,182.713760 505.624847,190.459579 505.860931,201.598175 
	C506.196014,217.406769 505.530396,233.242188 505.083374,249.060242 
	C504.593842,266.383698 498.673279,281.870941 485.787628,293.390137 
	C475.852753,302.271515 464.431915,309.585205 453.171722,316.817352 
	C450.627747,318.451263 445.423737,318.021637 442.455933,316.529510 
	C433.423004,311.988098 433.396698,299.910248 442.214905,293.495148 
	C447.428680,289.702271 453.098938,286.528564 458.619110,283.166962 
	C467.979065,277.467010 474.336365,269.450836 476.925537,258.786194 
	C478.282410,253.197342 478.911835,247.431870 479.977905,242.535110 
	C480.085419,243.617783 480.192963,244.700439 480.300476,245.783112 
	C480.997589,225.636841 481.004517,205.549698 480.952301,185.462708 
	C480.951141,185.023773 480.273651,184.586624 479.364044,183.744675 
	C476.773743,181.236526 474.544067,178.125992 471.531860,176.322556 
	C457.073212,167.666199 441.291595,165.106491 424.643677,166.932312 
	C405.835846,168.995010 388.737152,175.244644 373.568390,186.752029 
	C366.434845,192.163696 362.136841,199.504807 357.970551,207.119003 
	C353.450867,215.378967 349.041321,216.703995 339.901093,215.253784 
	C333.100739,214.174820 325.775513,213.258377 319.170074,214.622665 
	C284.185944,221.848404 258.071655,250.219360 252.995438,285.456299 
	C251.995407,292.398254 248.757355,297.266907 241.750031,299.755463 
	C231.779022,303.296570 223.828735,309.756653 217.855453,318.522308 
	C205.117157,337.215546 200.871414,357.957489 204.233826,380.077301 
	C206.332809,393.885620 211.615250,406.652802 218.984100,416.039459 
	C230.251953,405.655029 241.489716,395.298309 252.634628,385.027161 
	C238.243515,364.013092 242.737350,339.740173 258.461609,323.055939 
	C270.914856,309.842377 283.727448,296.965973 296.457458,284.015533 
	C301.357391,279.030762 306.045319,273.696777 311.569092,269.493408 
	C325.830475,258.640991 342.041290,255.639465 357.830444,259.192047 
	C365.577026,250.123322 372.440704,241.675705 379.741608,233.624573 
	C396.410553,215.242798 417.144958,207.873199 441.621643,212.225937 
	C444.995483,212.825912 448.551849,215.477188 450.875183,218.169800 
	C454.182129,222.002426 453.932892,226.872635 451.108582,231.156250 
	C447.790253,236.189163 442.872314,238.287048 436.945129,237.469009 
	C427.385101,236.149567 418.548401,237.620987 410.242767,242.828247 
	C399.474579,249.579422 391.653748,259.113312 383.948700,268.876038 
	C407.119049,287.822540 410.949890,319.985229 391.863800,340.530151 
	C374.068268,359.685883 355.753296,378.418610 336.768646,396.388458 
	C324.770203,407.745514 309.657440,413.031250 292.819885,410.035095 
	C285.641998,408.757874 278.714661,406.072784 270.468811,403.677582 
	C260.629822,413.888092 249.917480,425.004944 238.785553,436.557220 
	C244.593658,439.796600 250.177490,443.330719 256.103851,446.143097 
	C281.076385,457.993927 307.274658,461.767670 334.563019,457.153656 
	C336.244324,456.869385 337.947815,455.140411 339.115234,453.667084 
	C344.045288,447.445160 347.731415,439.674103 353.838776,435.088287 
	C361.831879,429.086456 365.445831,421.394196 369.306976,412.849640 
	C375.207001,399.793060 384.058807,388.846893 398.465393,382.935974 
	C398.974609,382.606262 399.483856,382.276550 399.992706,382.004150 
M626.573486,555.794495 
	C619.001587,559.282593 611.429688,562.770691 603.412476,566.463928 
	C611.385986,577.151978 618.868164,586.778687 631.974915,590.290039 
	C650.016663,595.123596 668.194946,596.636658 686.636780,593.972290 
	C707.448059,590.965637 725.010498,581.782349 738.211060,565.143188 
	C744.133179,557.678345 748.436096,549.370789 749.057861,539.025208 
	C746.312195,539.025208 743.809143,539.314270 741.397278,538.967834 
	C735.531128,538.125061 729.564758,537.465332 723.922180,535.781921 
	C720.738586,534.832153 718.667053,534.800110 715.994324,536.820496 
	C697.576294,550.742981 676.618225,556.616089 653.690796,556.023804 
	C644.907654,555.796936 636.123230,555.620117 626.573486,555.794495 
M699.054565,286.051727 
	C699.054565,283.806335 699.054565,281.560944 699.054565,279.149628 
	C687.635986,283.286652 652.624878,319.211182 650.524109,328.741089 
	C653.871826,327.688782 657.072083,326.314789 660.409729,325.742889 
	C663.414429,325.228027 666.740234,324.947754 669.621887,325.709015 
	C674.969910,327.121796 678.893188,332.776093 679.016663,337.938049 
	C679.139221,343.062988 675.839478,348.294586 670.592590,350.335968 
	C665.897217,352.162720 660.991821,353.449707 655.362488,355.233582 
	C656.835632,356.412018 657.714661,357.161438 658.640137,357.848450 
	C669.728455,366.080139 685.635742,364.613647 696.664185,353.674561 
	C711.441467,339.016998 726.157837,324.265167 740.174316,308.891846 
	C744.777893,303.842682 747.992920,297.033783 750.252197,290.481110 
	C752.471313,284.045074 751.509949,276.904755 745.512451,272.389771 
	C740.851013,268.880585 735.323425,266.521912 729.362427,263.195099 
	C728.168335,271.949280 727.138672,279.609344 726.074036,287.264557 
	C725.323425,292.661072 722.449524,296.310272 717.221924,298.117004 
	C708.905701,300.991119 702.483032,297.018677 699.054565,286.051727 
M604.604248,430.002716 
	C582.327820,436.620819 560.067627,443.294128 537.765503,449.824432 
	C530.780151,451.869812 526.130798,456.402649 522.143860,463.267975 
	C525.740601,462.598846 528.601624,462.139282 531.429504,461.526428 
	C539.096497,459.864838 546.590088,464.261475 547.961487,471.287323 
	C549.591675,479.639099 544.762634,486.630615 536.438965,488.016418 
	C532.164062,488.728149 527.898682,489.497620 523.381958,490.283997 
	C530.338379,498.969818 538.602295,502.275879 548.588013,500.048767 
	C556.303345,498.327942 563.937439,496.190582 571.523376,493.952820 
	C586.998535,489.387756 602.457031,484.757233 617.841431,479.897430 
	C625.336731,477.529694 630.798706,472.576965 634.687439,464.603210 
	C629.282959,465.633575 624.752930,466.403503 620.266174,467.373596 
	C612.582275,469.034943 604.809814,464.657532 603.145935,457.612366 
	C601.388245,450.169922 605.677063,442.829895 613.483032,440.949646 
	C618.847107,439.657501 624.421631,439.238770 629.983826,438.417542 
	C625.405029,430.864502 615.119751,427.356384 604.604248,430.002716 
z"></path>
<path fill="#0296DD" opacity="1.000000" stroke="none" d="
M221.607910,779.978149 
	C222.344772,791.737122 223.126328,803.493530 223.806702,815.255737 
	C224.573669,828.514954 225.260483,841.778870 225.952103,855.042297 
	C226.045837,856.840088 225.964996,858.646973 225.964996,860.739258 
	C220.514862,860.739258 215.288147,860.739258 209.722305,860.739258 
	C209.159180,846.392639 208.599609,832.136353 208.368271,817.100647 
	C208.481628,808.212952 208.266754,800.104553 208.051880,791.996216 
	C207.352036,793.360718 206.439331,794.658081 205.984924,796.099915 
	C200.737091,812.751160 195.464783,829.396179 190.451630,846.118530 
	C189.588699,848.997009 188.608612,850.175964 185.453659,850.074219 
	C170.835312,849.602600 174.197601,852.407654 169.971588,838.569580 
	C165.544983,824.074768 161.296677,809.525574 156.946442,795.007324 
	C156.596497,793.839417 156.060364,792.727356 154.946854,791.757141 
	C154.946854,798.875793 154.946854,805.994446 154.474854,813.682007 
	C153.672394,815.121216 153.082245,815.982239 153.050812,816.863159 
	C152.650894,828.074463 152.307251,839.287964 151.997833,850.502258 
	C151.695892,861.445557 154.117310,859.823425 142.160278,859.991028 
	C141.829346,859.995667 141.365479,860.128113 141.188751,859.961670 
	C140.091553,858.929260 138.397400,857.968079 138.134399,856.722778 
	C137.468216,853.568665 137.454025,850.276794 137.178696,847.040100 
	C137.850037,834.258972 138.483322,821.475708 139.204941,808.697388 
	C139.767517,798.735718 140.439972,788.780212 141.472351,778.160156 
	C142.477814,775.842224 143.074524,774.186035 143.859711,772.006714 
	C147.590103,772.006714 151.560333,772.293274 155.470490,771.931274 
	C159.955170,771.516052 163.452438,772.351013 165.166473,776.965393 
	C165.166473,776.965393 165.065826,776.960449 165.050369,777.336609 
	C166.132111,781.101074 167.229294,784.489380 168.326477,787.877686 
	C168.326477,787.877686 168.190857,787.902588 168.140610,788.199463 
	C168.419952,789.326538 168.749542,790.156616 169.079132,790.986755 
	C169.079117,790.986755 169.008469,790.981873 169.014511,791.360352 
	C169.830673,794.075073 170.640808,796.411194 171.450928,798.747375 
	C171.450928,798.747375 171.412292,798.828308 171.267120,799.206909 
	C171.951843,801.685059 172.781723,803.784607 173.611588,805.884094 
	C176.138382,815.064331 178.665161,824.244568 181.419724,834.252319 
	C187.579056,813.808655 193.506592,794.134277 199.953491,774.346558 
	C201.722061,773.490601 202.919220,772.241760 204.230896,772.106873 
	C207.315262,771.789856 210.473495,772.223328 213.566742,771.952454 
	C218.025299,771.561951 221.053696,772.289795 220.111145,777.844971 
	C220.007828,778.453857 221.080612,779.262268 221.607910,779.978149 
z"></path>
<path fill="#0298DD" opacity="1.000000" stroke="none" d="
M349.550903,813.696289 
	C348.065582,809.627991 346.427704,805.586670 341.345520,805.074219 
	C334.822632,804.416626 331.147217,808.592957 327.431000,813.852173 
	C326.615265,815.852722 326.064423,817.409363 326.052856,818.969971 
	C325.975098,829.461426 326.127960,839.955444 325.979706,850.445435 
	C325.824219,861.447327 328.197998,859.817444 316.118164,859.993042 
	C315.785187,859.997925 315.312469,860.130432 315.141632,859.962585 
	C314.060883,858.900330 312.154266,857.778381 312.143707,856.660828 
	C311.960144,837.177307 311.985138,817.691528 312.086029,798.206787 
	C312.091400,797.168213 313.192505,795.229919 313.743378,795.244324 
	C317.757782,795.349548 322.411499,793.188660 325.350983,797.934204 
	C325.697876,799.166992 326.044769,800.399780 326.519928,802.088257 
	C331.693604,796.131653 337.499054,791.950073 345.815521,791.794434 
	C354.480011,791.632385 360.335876,795.210388 364.079987,803.298584 
	C370.667175,793.485291 379.773468,790.158569 390.520142,792.212219 
	C398.939209,793.821167 402.280609,800.522888 403.562195,808.984375 
	C403.189697,823.337036 403.170593,836.984192 402.980164,850.628906 
	C402.829590,861.416321 405.010498,859.709290 393.432343,860.056213 
	C389.883881,860.162537 388.873596,858.925903 388.924744,855.479187 
	C389.100220,843.655518 389.044647,831.827271 388.932343,820.002075 
	C388.916687,818.356812 388.089233,816.719116 387.637573,815.077942 
	C386.695648,810.653625 385.520386,806.187195 380.302551,805.173767 
	C374.602936,804.066833 370.606079,807.063232 366.994507,811.630066 
	C365.980072,813.714661 365.096436,815.718384 365.070953,817.732910 
	C364.932159,828.695679 365.004883,839.661194 365.004913,850.625732 
	C365.004944,860.193604 365.004639,860.046265 355.481079,860.068848 
	C352.030670,860.076965 350.872284,859.063660 350.925598,855.548096 
	C351.109436,843.423401 351.056671,831.293640 350.932251,819.167419 
	C350.913513,817.339172 350.032867,815.519775 349.550903,813.696289 
z"></path>
<path fill="#0296DC" opacity="1.000000" stroke="none" d="
M801.042725,839.199768 
	C799.274963,845.531372 797.677429,851.919861 795.597290,858.147156 
	C795.175476,859.409912 793.018066,860.653320 791.510010,860.873596 
	C788.576294,861.302063 785.535645,860.984741 782.539551,861.003662 
	C779.311768,861.023987 778.427551,859.449219 779.378967,856.515991 
	C788.220703,829.256531 797.019775,801.983032 806.002136,774.770020 
	C806.398804,773.568115 808.371582,772.284790 809.737793,772.124207 
	C813.021667,771.738342 816.434143,772.373413 819.698853,771.914307 
	C825.453674,771.105042 827.949280,773.261902 829.687561,778.929626 
	C837.174194,803.340881 845.245361,827.572815 853.079407,852.684570 
	C853.282654,855.434021 853.510132,857.368958 853.859070,860.337585 
	C848.595703,859.883362 843.721008,859.462646 838.846313,859.041931 
	C838.846313,859.041931 838.938354,859.038391 838.949585,858.691406 
	C838.260498,856.572876 837.560059,854.801270 836.859619,853.029724 
	C835.305481,848.632019 833.751343,844.234253 831.822144,839.156494 
	C821.828613,838.346619 812.210205,838.199524 802.591309,838.135376 
	C802.077515,838.132019 801.559021,838.828857 801.042725,839.199768 
M827.451843,822.197449 
	C823.959961,810.544678 820.468079,798.891846 816.703308,786.328247 
	C812.790161,799.818848 809.174500,812.283508 805.457703,825.096985 
	C812.445007,825.096985 818.766968,825.182800 825.081360,825.002747 
	C826.009094,824.976318 826.900879,823.686890 827.451843,822.197449 
z"></path>
<path fill="#0196DD" opacity="1.000000" stroke="none" d="
M515.836975,765.006958 
	C515.891479,770.830994 515.966492,776.654968 515.994629,782.479126 
	C516.021729,788.107361 516.000488,793.735901 516.000488,798.404541 
	C521.532776,796.212280 527.007324,793.046204 532.873108,791.923218 
	C545.608093,789.485168 555.217712,797.052856 555.907288,810.178528 
	C556.762024,826.446655 556.665466,842.764709 556.453247,859.524780 
	C552.427917,859.990356 548.913574,859.787231 545.434692,860.051086 
	C541.859314,860.322266 540.892395,858.900513 540.940491,855.469910 
	C541.111084,843.309814 541.056946,831.145386 540.943787,818.983948 
	C540.928467,817.341064 540.091064,815.705811 539.634338,814.067017 
	C536.934204,806.388611 533.355652,803.920471 526.575256,805.060425 
	C520.454834,806.089417 516.010132,811.774170 516.005554,818.595825 
	C515.996399,832.082520 515.993469,845.569214 515.459351,859.523071 
	C511.767822,859.991943 508.572296,859.707214 505.449951,860.063782 
	C500.964630,860.575745 499.870239,858.862366 499.900696,854.494873 
	C500.095886,826.530029 500.124725,798.562012 499.881622,770.597961 
	C499.839630,765.766907 501.460052,764.523499 505.854919,764.940857 
	C509.154602,765.254211 512.507690,765.005493 515.836975,765.006958 
z"></path>
<path fill="#0395DD" opacity="1.000000" stroke="none" d="
M436.958221,811.250244 
	C437.908325,819.041443 437.973755,826.630859 440.036957,833.631592 
	C444.637054,849.240479 461.731384,850.868347 474.279572,845.539368 
	C475.942719,844.833130 477.474243,843.816772 479.595032,842.654480 
	C481.737488,845.896973 483.882812,849.143738 486.236420,852.705811 
	C474.515778,862.369751 461.410919,864.965515 447.081482,861.032959 
	C432.221436,856.954895 423.247284,846.532227 420.242462,831.955933 
	C416.784332,815.180664 417.440613,798.560059 428.712952,784.115845 
	C441.642273,767.548401 470.909027,765.023682 485.972351,779.481079 
	C483.506195,783.011475 481.003723,786.593872 479.016510,789.438660 
	C473.268646,787.749939 468.196930,785.489685 462.931641,784.867371 
	C450.586121,783.408142 441.438934,790.372742 438.185760,802.951660 
	C437.527924,805.495361 437.368988,808.168091 436.958221,811.250244 
z"></path>
<path fill="#0394DC" opacity="1.000000" stroke="none" d="
M622.377930,803.795898 
	C623.729919,809.038513 625.549988,813.952942 625.810730,818.948853 
	C626.320801,828.721680 625.960510,838.539917 625.960510,848.659973 
	C627.714661,848.868958 629.117310,849.036011 631.618164,849.333923 
	C628.283813,853.255981 633.151489,859.645630 626.239441,861.586182 
	C619.975464,863.344849 613.810547,860.288635 611.204102,855.292786 
	C605.256226,857.633423 599.610718,860.993164 593.575256,861.988464 
	C581.768677,863.935547 573.178223,857.736816 570.398132,846.778564 
	C567.943115,837.102173 572.889160,827.817871 583.788940,823.814941 
	C589.733459,821.631714 596.301392,821.101013 602.619690,820.007446 
	C604.531372,819.676575 606.548706,819.956299 608.333008,819.956299 
	C611.725037,809.406250 602.822937,804.217285 594.046997,805.334534 
	C589.181641,805.953918 584.437012,807.521606 579.030212,808.806335 
	C577.714478,805.442078 576.238953,801.669128 574.646606,797.597656 
	C586.384766,792.250122 598.227295,789.520142 610.314636,794.266174 
	C614.777893,796.018677 618.228699,800.349548 622.377930,803.795898 
M604.371216,847.025879 
	C611.373657,842.779907 608.495911,836.158203 609.166931,829.035522 
	C602.658264,830.543335 596.929565,831.347595 591.602478,833.266846 
	C587.189819,834.856567 585.224304,840.052856 586.560303,843.874084 
	C588.170776,848.480164 591.777893,850.218384 596.283264,849.768188 
	C598.827515,849.514038 601.274841,848.289490 604.371216,847.025879 
z"></path>
<path fill="#0296DD" opacity="1.000000" stroke="none" d="
M680.164612,857.043274 
	C680.164612,836.096863 680.164612,815.150513 680.164612,793.990601 
	C685.065613,793.990601 689.667358,793.990601 694.558044,793.990601 
	C695.101929,796.467773 695.653381,798.979370 696.300110,801.924744 
	C701.358887,796.721863 706.751648,792.660339 714.106689,791.759583 
	C727.162048,790.160767 736.556885,797.241150 736.916443,810.324768 
	C737.373352,826.948669 737.027100,843.594604 737.027100,860.633057 
	C732.116760,860.633057 726.769104,860.633057 720.971802,860.633057 
	C720.971802,847.782654 720.971924,834.997559 720.971741,822.212402 
	C720.971741,820.546265 721.078308,818.871765 720.949646,817.215576 
	C720.577515,812.426086 719.558899,807.954041 714.453552,805.859680 
	C709.305176,803.747742 705.096252,805.466919 701.394043,809.128784 
	C700.214294,810.295776 699.089844,811.518555 697.295837,813.100830 
	C696.436829,815.091492 696.043823,816.696289 696.036011,818.302856 
	C695.982300,829.401184 696.064880,840.500183 695.992981,851.598267 
	C695.930237,861.269653 697.311768,859.881470 687.545410,859.974365 
	C684.736145,860.001099 681.458679,860.943420 680.164612,857.043274 
z"></path>
<path fill="#0295DD" opacity="1.000000" stroke="none" d="
M257.009399,832.853027 
	C256.468079,834.206970 255.211151,835.739380 255.497299,836.887024 
	C258.061951,847.173035 267.273224,852.271667 278.352112,849.472412 
	C282.156158,848.511169 285.767151,846.786072 289.752075,845.303711 
	C291.271698,847.895813 292.992889,850.831787 294.855103,854.008301 
	C283.061493,863.077454 270.198120,865.213989 256.824707,859.842957 
	C243.488998,854.487061 238.169800,843.349182 237.843872,829.335632 
	C237.582336,818.090515 239.740631,807.812012 248.454071,799.965454 
	C257.980621,791.386475 269.125366,789.577148 280.836853,794.141418 
	C292.505737,798.689087 297.096497,808.583191 297.971649,820.436096 
	C298.239227,824.060181 297.780609,827.737915 296.916382,831.699585 
	C284.704987,832.005432 273.231598,831.969971 261.758759,832.037964 
	C260.174103,832.047363 258.592438,832.568665 257.009399,832.853027 
M281.986023,820.963013 
	C282.035217,814.570129 280.977539,808.488159 274.667725,805.288574 
	C264.773102,800.271301 254.033997,809.494690 255.557373,822.601868 
	C263.015839,822.736206 270.474213,822.932739 277.932922,822.947632 
	C279.277313,822.950317 280.623199,822.205505 281.986023,820.963013 
z"></path>
<path fill="#0098DE" opacity="1.000000" stroke="none" d="
M645.173828,859.978088 
	C645.120422,838.634644 645.066956,817.291199 645.540771,795.478394 
	C649.395935,795.004944 652.747864,795.250183 656.045654,794.932800 
	C660.058838,794.546570 661.126160,796.076050 661.085266,799.987976 
	C660.895569,818.123352 660.815857,836.264771 661.119812,854.396973 
	C661.200989,859.236267 659.535156,860.464111 655.151917,860.052979 
	C651.852600,859.743469 648.501770,859.982910 645.173828,859.978088 
z"></path>
<path fill="#0395DD" opacity="1.000000" stroke="none" d="
M664.393372,769.531677 
	C664.169128,776.964844 660.207520,781.002197 653.852112,780.746216 
	C647.411011,780.486877 643.542297,776.461670 643.941528,770.304382 
	C644.235229,765.775452 646.755493,762.831604 651.128052,762.047729 
	C658.412292,760.742004 662.226074,762.967285 664.393372,769.531677 
z"></path>
<path fill="#0176D3" opacity="1.000000" stroke="none" d="
M866.735168,814.000000 
	C866.734314,799.533325 866.734314,785.566589 866.734314,771.293213 
	C872.348816,771.293213 877.783142,771.293213 883.608459,771.293213 
	C883.608459,800.917725 883.608459,830.731567 883.608459,860.776917 
	C878.153076,860.776917 872.736328,860.776917 866.736023,860.776917 
	C866.736023,845.291992 866.736023,829.895996 866.735168,814.000000 
M868.000000,814.500000 
	C868.000000,826.480652 868.000061,838.461365 868.000000,850.442017 
	C868.000000,860.030579 868.010864,859.749939 877.362305,860.114319 
	C882.135010,860.300293 883.140991,858.633911 883.104431,854.193787 
	C882.907043,830.234070 883.010193,806.271912 883.009827,782.310547 
	C883.009644,771.758545 883.009949,771.913391 872.386047,771.924072 
	C868.791748,771.927673 867.888794,773.180786 867.933228,776.560486 
	C868.095154,788.871826 867.998901,801.186523 868.000000,814.500000 
z"></path>
<path fill="#0176D3" opacity="1.000000" stroke="none" d="
M325.270447,797.495789 
	C322.411499,793.188660 317.757782,795.349548 313.743378,795.244324 
	C313.192505,795.229919 312.091400,797.168213 312.086029,798.206787 
	C311.985138,817.691528 311.960144,837.177307 312.143707,856.660828 
	C312.154266,857.778381 314.060883,858.900330 315.141632,859.962585 
	C315.312469,860.130432 315.785187,859.997925 316.118164,859.993042 
	C328.197998,859.817444 325.824219,861.447327 325.979706,850.445435 
	C326.127960,839.955444 325.975098,829.461426 326.052856,818.969971 
	C326.064423,817.409363 326.615265,815.852722 327.280304,814.174805 
	C327.665924,818.094055 327.687866,822.132690 327.421478,826.983154 
	C327.268372,837.507446 327.403564,847.219910 327.538788,856.932373 
	C327.592621,857.408630 327.646423,857.884888 327.460175,858.886597 
	C327.163849,859.863953 327.107574,860.315918 327.051331,860.767822 
	C321.917206,860.767822 316.783051,860.767822 311.318756,860.767822 
	C311.318756,838.613220 311.318756,816.427856 311.318756,793.840149 
	C314.961517,793.840149 318.594452,793.590149 322.155029,793.987915 
	C323.267059,794.112061 324.183777,795.984985 325.270447,797.495789 
z"></path>
<path fill="#0176D3" opacity="1.000000" stroke="none" d="
M515.693726,764.600708 
	C512.507690,765.005493 509.154602,765.254211 505.854919,764.940857 
	C501.460052,764.523499 499.839630,765.766907 499.881622,770.597961 
	C500.124725,798.562012 500.095886,826.530029 499.900696,854.494873 
	C499.870239,858.862366 500.964630,860.575745 505.449951,860.063782 
	C508.572296,859.707214 511.767822,859.991943 515.387878,859.985718 
	C510.433502,860.468933 505.021912,860.956726 499.277283,861.474548 
	C499.277283,828.666138 499.277283,796.627502 499.277283,764.194397 
	C504.705017,764.194397 510.127716,764.194397 515.693726,764.600708 
z"></path>
<path fill="#0176D3" opacity="1.000000" stroke="none" d="
M387.625885,815.542114 
	C388.089233,816.719116 388.916687,818.356812 388.932343,820.002075 
	C389.044647,831.827271 389.100220,843.655518 388.924744,855.479187 
	C388.873596,858.925903 389.883881,860.162537 393.432343,860.056213 
	C405.010498,859.709290 402.829590,861.416321 402.980164,850.628906 
	C403.170593,836.984192 403.189697,823.337036 403.531281,809.363831 
	C403.779877,826.159180 403.779877,843.281677 403.779877,860.708008 
	C398.821075,860.708008 393.576935,860.708008 387.614197,860.708008 
	C387.614197,845.803162 387.614197,830.904663 387.625885,815.542114 
z"></path>
<path fill="#0176D3" opacity="1.000000" stroke="none" d="
M349.559082,814.197876 
	C350.032867,815.519775 350.913513,817.339172 350.932251,819.167419 
	C351.056671,831.293640 351.109436,843.423401 350.925598,855.548096 
	C350.872284,859.063660 352.030670,860.076965 355.481079,860.068848 
	C365.004639,860.046265 365.004944,860.193604 365.004913,850.625732 
	C365.004883,839.661194 364.932159,828.695679 365.070953,817.732910 
	C365.096436,815.718384 365.980072,813.714661 366.726959,811.832275 
	C366.714722,814.395996 366.221649,816.832275 366.208191,819.271179 
	C366.132263,833.024353 366.171509,846.778259 366.171509,860.769470 
	C360.735992,860.769470 355.642517,860.769470 349.567230,860.769470 
	C349.567230,845.431030 349.567230,830.065247 349.559082,814.197876 
z"></path>
<path fill="#097DD4" opacity="1.000000" stroke="none" d="
M137.106125,847.486938 
	C137.454025,850.276794 137.468216,853.568665 138.134399,856.722778 
	C138.397400,857.968079 140.091553,858.929260 141.188751,859.961670 
	C141.365479,860.128113 141.829346,859.995667 142.160278,859.991028 
	C154.117310,859.823425 151.695892,861.445557 151.997833,850.502258 
	C152.307251,839.287964 152.650894,828.074463 153.050812,816.863159 
	C153.082245,815.982239 153.672394,815.121216 154.378265,814.144165 
	C154.077393,829.546875 153.401138,845.056396 152.715088,860.790161 
	C147.313217,860.790161 142.087036,860.790161 137.033554,860.790161 
	C137.033554,856.410645 137.033554,852.172180 137.106125,847.486938 
z"></path>
<path fill="#0176D3" opacity="1.000000" stroke="none" d="
M645.311096,860.387329 
	C648.501770,859.982910 651.852600,859.743469 655.151917,860.052979 
	C659.535156,860.464111 661.200989,859.236267 661.119812,854.396973 
	C660.815857,836.264771 660.895569,818.123352 661.085266,799.987976 
	C661.126160,796.076050 660.058838,794.546570 656.045654,794.932800 
	C652.747864,795.250183 649.395935,795.004944 645.610596,795.015747 
	C648.390137,794.619568 651.618896,794.120544 654.866699,793.847656 
	C657.006775,793.667847 659.174255,793.813721 661.668579,793.813721 
	C661.668579,816.124939 661.668579,838.289856 661.668579,860.796570 
	C656.280640,860.796570 650.864502,860.796570 645.311096,860.387329 
z"></path>
<path fill="#0176D3" opacity="1.000000" stroke="none" d="
M680.099121,857.477905 
	C681.458679,860.943420 684.736145,860.001099 687.545410,859.974365 
	C697.311768,859.881470 695.930237,861.269653 695.992981,851.598267 
	C696.064880,840.500183 695.982300,829.401184 696.036011,818.302856 
	C696.043823,816.696289 696.436829,815.091492 697.028076,813.274841 
	C697.267273,826.372437 697.126160,839.681030 696.996277,852.989807 
	C696.972168,855.462769 696.992798,857.936157 696.992798,861.003174 
	C691.800964,861.003174 686.864136,861.122925 681.947021,860.865784 
	C681.259644,860.829834 680.669067,858.942749 680.099121,857.477905 
z"></path>
<path fill="#0176D3" opacity="1.000000" stroke="none" d="
M539.719116,814.526001 
	C540.091064,815.705811 540.928467,817.341064 540.943787,818.983948 
	C541.056946,831.145386 541.111084,843.309814 540.940491,855.469910 
	C540.892395,858.900513 541.859314,860.322266 545.434692,860.051086 
	C548.913574,859.787231 552.427917,859.990356 556.383667,859.988098 
	C551.427856,860.472778 546.015198,860.957703 539.803894,861.514221 
	C539.803894,845.468079 539.803894,830.226562 539.719116,814.526001 
z"></path>
<path fill="#0176D3" opacity="1.000000" stroke="none" d="
M257.474304,832.918823 
	C258.592438,832.568665 260.174103,832.047363 261.758759,832.037964 
	C273.231598,831.969971 284.704987,832.005432 296.655457,832.027771 
	C295.627441,832.368530 294.123810,832.958984 292.616669,832.967957 
	C281.057892,833.037170 269.498474,832.993347 257.474304,832.918823 
z"></path>
<path fill="#097DD4" opacity="1.000000" stroke="none" d="
M165.134796,776.550354 
	C163.452438,772.351013 159.955170,771.516052 155.470490,771.931274 
	C151.560333,772.293274 147.590103,772.006714 143.859711,772.006714 
	C143.074524,774.186035 142.477814,775.842224 141.587753,777.708313 
	C141.426315,775.667603 141.558228,773.416931 141.694626,771.089966 
	C149.111954,771.089966 156.018509,771.089966 163.710129,771.089966 
	C164.120361,772.575806 164.611755,774.355530 165.134796,776.550354 
z"></path>
<path fill="#0176D3" opacity="1.000000" stroke="none" d="
M221.640259,779.576050 
	C221.080612,779.262268 220.007828,778.453857 220.111145,777.844971 
	C221.053696,772.289795 218.025299,771.561951 213.566742,771.952454 
	C210.473495,772.223328 207.315262,771.789856 204.230896,772.106873 
	C202.919220,772.241760 201.722061,773.490601 200.223358,774.096436 
	C200.675690,772.971558 201.346832,771.153076 202.084198,771.125793 
	C208.287872,770.896484 214.503693,770.995117 220.710281,770.995117 
	C221.064789,774.007996 221.368713,776.591003 221.640259,779.576050 
z"></path>
<path fill="#0176D3" opacity="1.000000" stroke="none" d="
M801.503296,839.123230 
	C801.559021,838.828857 802.077515,838.132019 802.591309,838.135376 
	C812.210205,838.199524 821.828613,838.346619 831.713501,838.802795 
	C821.974548,839.101685 811.969238,839.074219 801.503296,839.123230 
z"></path>
<path fill="#0298DD" opacity="1.000000" stroke="none" d="
M327.651764,856.480347 
	C327.403564,847.219910 327.268372,837.507446 327.329346,827.442932 
	C327.605225,836.736694 327.684967,846.382507 327.651764,856.480347 
z"></path>
<path fill="#0176D3" opacity="1.000000" stroke="none" d="
M838.897827,859.477356 
	C843.721008,859.462646 848.595703,859.883362 853.859070,860.337585 
	C853.510132,857.368958 853.282654,855.434021 853.080566,853.062378 
	C854.096130,855.155945 855.086426,857.686279 856.570007,861.476929 
	C850.137146,860.905884 844.543274,860.409363 838.897827,859.477356 
z"></path>
<path fill="#0176D3" opacity="1.000000" stroke="none" d="
M208.021515,792.464111 
	C208.266754,800.104553 208.481628,808.212952 208.439362,816.641846 
	C208.118515,808.952271 208.054825,800.942078 208.021515,792.464111 
z"></path>
<path fill="#097DD4" opacity="1.000000" stroke="none" d="
M168.267365,787.477539 
	C167.229294,784.489380 166.132111,781.101074 165.064697,777.288330 
	C166.132401,780.268372 167.170334,783.672852 168.267365,787.477539 
z"></path>
<path fill="#097DD4" opacity="1.000000" stroke="none" d="
M171.379272,798.367615 
	C170.640808,796.411194 169.830673,794.075073 169.031952,791.329590 
	C169.798111,793.276123 170.552872,795.632019 171.379272,798.367615 
z"></path>
<path fill="#097DD4" opacity="1.000000" stroke="none" d="
M173.499420,805.506104 
	C172.781723,803.784607 171.951843,801.685059 171.237000,799.173706 
	C172.030441,800.883972 172.708847,803.006042 173.499420,805.506104 
z"></path>
<path fill="#0176D3" opacity="1.000000" stroke="none" d="
M836.885803,853.401855 
	C837.560059,854.801270 838.260498,856.572876 838.940063,858.736511 
	C838.250183,857.343689 837.581055,855.558899 836.885803,853.401855 
z"></path>
<path fill="#097DD4" opacity="1.000000" stroke="none" d="
M169.076218,790.635437 
	C168.749542,790.156616 168.419952,789.326538 168.160583,788.133545 
	C168.511642,788.608459 168.792465,789.446289 169.076218,790.635437 
z"></path>
<path fill="#0298DD" opacity="1.000000" stroke="none" d="
M327.324524,860.714233 
	C327.107574,860.315918 327.163849,859.863953 327.372375,859.237671 
	C327.549011,859.595825 327.573364,860.128235 327.324524,860.714233 
z"></path>
<path fill="#FEFEFF" opacity="1.000000" stroke="none" d="
M479.869751,241.746155 
	C478.911835,247.431870 478.282410,253.197342 476.925537,258.786194 
	C474.336365,269.450836 467.979065,277.467010 458.619110,283.166962 
	C453.098938,286.528564 447.428680,289.702271 442.214905,293.495148 
	C433.396698,299.910248 433.423004,311.988098 442.455933,316.529510 
	C445.423737,318.021637 450.627747,318.451263 453.171722,316.817352 
	C464.431915,309.585205 475.852753,302.271515 485.787628,293.390137 
	C498.673279,281.870941 504.593842,266.383698 505.083374,249.060242 
	C505.530396,233.242188 506.196014,217.406769 505.860931,201.598175 
	C505.624847,190.459579 510.613251,182.713760 519.218323,177.043289 
	C532.712097,168.151306 547.872131,165.389938 563.830444,166.597397 
	C576.054321,167.522308 587.554077,170.854752 598.074707,177.272949 
	C599.038452,177.860886 599.923523,178.577820 600.854980,179.241898 
	C587.454773,188.525665 575.033997,198.415558 568.156921,213.566681 
	C566.981079,216.157257 565.265503,216.930725 562.360413,217.082657 
	C557.273132,217.348709 552.090576,217.964172 547.200867,219.335251 
	C539.591003,221.469070 535.430359,228.766861 537.329712,235.373383 
	C539.513062,242.968079 545.677795,246.152634 554.086548,244.642075 
	C561.121399,243.378326 568.242188,242.915695 575.082031,245.977554 
	C585.509766,250.645477 591.233215,259.642822 589.987793,270.971527 
	C589.652954,274.016937 587.440186,277.268311 585.217285,279.590118 
	C582.396118,282.536743 578.379944,284.315643 575.429321,287.167480 
	C570.832092,291.610748 570.647888,298.642517 574.414795,304.037140 
	C578.211975,309.475159 584.648193,311.486145 590.618469,309.100037 
	C605.177673,303.281097 616.537842,286.614075 617.110535,271.072998 
	C617.840332,251.264969 609.961914,236.080154 593.094543,224.852142 
	C598.280029,213.655884 606.559631,205.419998 617.534546,200.037781 
	C634.510376,191.712616 651.300537,194.714630 667.928040,201.575424 
	C686.635498,209.294434 697.878540,224.063019 705.764832,241.837936 
	C709.090210,249.333099 707.009888,252.077530 698.734558,253.017548 
	C688.013184,254.235397 678.632385,258.591919 670.964294,266.164307 
	C658.879944,278.097839 646.846924,290.091919 635.095459,302.351135 
	C627.180786,310.607880 623.580261,320.799164 623.996826,332.260284 
	C624.101379,335.136444 623.401550,336.723541 620.415771,337.670044 
	C604.076050,342.849640 587.802979,348.239288 571.024902,353.714111 
	C554.836487,331.626007 532.340210,325.241516 506.342010,332.431702 
	C485.382629,338.228302 472.669495,353.229065 466.676147,374.731262 
	C464.206512,376.176117 462.043030,377.045227 459.879517,377.914307 
	C459.879517,377.914307 459.957367,377.942841 459.520142,377.907593 
	C449.765442,377.602661 440.443787,377.030548 431.131836,377.158844 
	C423.676422,377.261536 416.232788,378.215302 408.783905,378.791382 
	C408.783905,378.791382 408.920471,378.811981 408.516022,378.797180 
	C405.388824,379.846527 402.666107,380.910675 399.943390,381.974823 
	C399.943390,381.974823 399.992706,382.004150 399.672394,381.996155 
	C398.841156,382.306580 398.330231,382.625031 397.819305,382.943481 
	C384.058807,388.846893 375.207001,399.793060 369.306976,412.849640 
	C365.445831,421.394196 361.831879,429.086456 353.838776,435.088287 
	C347.731415,439.674103 344.045288,447.445160 339.115234,453.667084 
	C337.947815,455.140411 336.244324,456.869385 334.563019,457.153656 
	C307.274658,461.767670 281.076385,457.993927 256.103851,446.143097 
	C250.177490,443.330719 244.593658,439.796600 238.785553,436.557220 
	C249.917480,425.004944 260.629822,413.888092 270.468811,403.677582 
	C278.714661,406.072784 285.641998,408.757874 292.819885,410.035095 
	C309.657440,413.031250 324.770203,407.745514 336.768646,396.388458 
	C355.753296,378.418610 374.068268,359.685883 391.863800,340.530151 
	C410.949890,319.985229 407.119049,287.822540 383.948700,268.876038 
	C391.653748,259.113312 399.474579,249.579422 410.242767,242.828247 
	C418.548401,237.620987 427.385101,236.149567 436.945129,237.469009 
	C442.872314,238.287048 447.790253,236.189163 451.108582,231.156250 
	C453.932892,226.872635 454.182129,222.002426 450.875183,218.169800 
	C448.551849,215.477188 444.995483,212.825912 441.621643,212.225937 
	C417.144958,207.873199 396.410553,215.242798 379.741608,233.624573 
	C372.440704,241.675705 365.577026,250.123322 357.830444,259.192047 
	C342.041290,255.639465 325.830475,258.640991 311.569092,269.493408 
	C306.045319,273.696777 301.357391,279.030762 296.457458,284.015533 
	C283.727448,296.965973 270.914856,309.842377 258.461609,323.055939 
	C242.737350,339.740173 238.243515,364.013092 252.634628,385.027161 
	C241.489716,395.298309 230.251953,405.655029 218.984100,416.039459 
	C211.615250,406.652802 206.332809,393.885620 204.233826,380.077301 
	C200.871414,357.957489 205.117157,337.215546 217.855453,318.522308 
	C223.828735,309.756653 231.779022,303.296570 241.750031,299.755463 
	C248.757355,297.266907 251.995407,292.398254 252.995438,285.456299 
	C258.071655,250.219360 284.185944,221.848404 319.170074,214.622665 
	C325.775513,213.258377 333.100739,214.174820 339.901093,215.253784 
	C349.041321,216.703995 353.450867,215.378967 357.970551,207.119003 
	C362.136841,199.504807 366.434845,192.163696 373.568390,186.752029 
	C388.737152,175.244644 405.835846,168.995010 424.643677,166.932312 
	C441.291595,165.106491 457.073212,167.666199 471.531860,176.322556 
	C474.544067,178.125992 476.773743,181.236526 479.617462,184.405090 
	C479.870514,203.959061 479.870148,222.852615 479.869751,241.746155 
z"></path>
<path fill="#FEFEFF" opacity="1.000000" stroke="none" d="
M809.689880,457.921997 
	C804.864624,470.875977 799.424438,483.560486 788.597900,492.768341 
	C774.195496,505.017426 758.063049,513.123474 737.610596,511.916260 
	C739.646118,506.642395 741.681763,501.875580 743.327820,496.977844 
	C745.495789,490.527557 742.971375,484.578461 737.062744,481.425507 
	C729.692810,477.492798 722.211060,480.434753 718.590515,488.015289 
	C714.834595,495.879303 711.480957,504.284302 706.085632,510.940399 
	C696.278381,523.039307 682.193176,528.017090 666.984985,528.839233 
	C654.695251,529.503723 642.300842,528.374390 630.030151,529.195740 
	C623.299316,529.646362 616.522766,531.948425 610.136597,534.384827 
	C601.851135,537.545837 594.080078,542.053467 585.798767,545.227905 
	C581.405762,546.911865 576.289001,546.600830 571.697266,547.894470 
	C561.367859,550.804443 558.333069,562.535217 565.786194,570.286194 
	C567.723999,572.301453 569.995117,574.095154 572.373474,575.570923 
	C583.099792,582.226318 590.550598,591.599609 594.772766,603.327881 
	C602.656250,625.226746 610.168640,647.259277 617.804932,669.246826 
	C618.166321,670.287231 618.233032,671.430054 618.484619,672.781128 
	C612.743225,672.502747 607.215820,672.587280 601.826538,671.765930 
	C600.135437,671.508240 598.297241,669.061218 597.409607,667.195984 
	C591.513977,654.807434 585.576050,642.425232 580.188721,629.811707 
	C571.418945,609.278687 558.435974,592.041748 542.042236,576.930237 
	C531.694031,567.391357 522.557007,556.538513 512.507446,545.838745 
	C511.906036,545.154419 511.673889,544.906494 511.441742,544.658508 
	C511.441742,544.658508 511.504791,544.553589 511.381683,544.222656 
	C510.506134,542.926575 509.753662,541.961426 509.001190,540.996338 
	C509.001190,540.996338 509.000000,541.000000 508.933899,540.737854 
	C508.452789,540.153748 508.037750,539.831787 507.622711,539.509827 
	C507.622711,539.509827 507.501953,539.497375 507.280212,539.191040 
	C503.957458,537.996765 500.660217,535.958923 497.794159,536.447998 
	C490.718567,537.655212 483.840698,540.021179 476.883331,541.921387 
	C476.883331,541.921387 476.961121,541.946777 476.536316,541.928345 
	C465.082520,543.000671 454.053467,544.091492 443.024445,545.182251 
	C442.571533,545.134094 442.118652,545.085876 440.886688,545.026855 
	C436.419861,544.760864 432.732086,544.505798 429.044312,544.250732 
	C404.034271,540.920105 382.334106,531.219116 367.723816,509.852081 
	C358.811401,496.817932 355.725739,482.179779 362.300018,466.887909 
	C365.899780,458.514740 372.095551,452.227814 380.248505,448.225006 
	C386.466339,445.172211 389.628479,441.091370 390.272949,433.735779 
	C391.834045,415.918182 407.759430,402.863312 425.794952,403.846954 
	C432.739624,404.225708 439.733765,406.338745 446.553253,405.785828 
	C458.375763,404.827332 470.088257,402.460480 481.830933,400.584534 
	C490.820374,399.148468 499.757446,397.360809 508.769287,396.096191 
	C516.805481,394.968475 521.574036,389.933655 521.228088,382.203674 
	C520.875793,374.332489 515.798889,369.673615 507.524567,369.768219 
	C504.400177,369.803955 501.278717,370.095032 497.541809,370.304077 
	C502.883148,361.834808 510.715759,358.054718 519.880371,357.097656 
	C534.951965,355.523682 545.411743,361.705902 551.971008,375.364624 
	C556.669922,385.149414 562.068726,386.583893 572.107788,382.678345 
	C590.822998,375.397461 609.828125,368.861603 628.746826,362.003235 
	C638.896484,378.634125 652.475037,388.056671 671.256104,389.026031 
	C689.695496,389.977753 704.707703,382.444397 717.408997,370.283447 
	C724.689270,381.634064 731.880676,392.846161 739.541199,404.789642 
	C731.759583,417.617401 720.375671,427.298645 704.000305,429.852356 
	C689.594604,432.098938 675.124146,433.950012 660.647583,435.685760 
	C659.456116,435.828583 657.366882,434.024750 656.761658,432.654266 
	C650.957947,419.513428 641.520447,410.244781 627.980469,405.437775 
	C624.954651,404.363525 621.526489,404.413177 618.279968,403.971741 
	C602.024048,401.761505 587.139709,407.412262 572.052368,411.988556 
	C560.217285,415.578369 548.387207,419.204987 536.458130,422.460602 
	C513.770081,428.652496 498.188324,441.534790 494.795929,466.022980 
	C476.789337,468.300446 465.738129,458.714600 456.959961,445.147003 
	C454.588196,441.481140 452.372406,437.952881 447.613617,436.873627 
	C442.159912,435.636719 437.791168,437.128174 434.234741,441.245911 
	C430.804443,445.217651 429.426331,450.076904 431.862671,454.636871 
	C436.030365,462.437622 441.047333,469.784668 446.559723,478.700409 
	C444.464386,480.786346 441.418610,484.425751 437.764221,487.288116 
	C434.008118,490.230133 429.555206,492.263031 425.591827,494.964569 
	C419.758087,498.941010 418.365356,505.288361 421.669556,511.574554 
	C424.956482,517.827881 431.926575,521.035645 438.003418,517.946838 
	C449.963196,511.867798 462.065979,505.779480 469.273376,493.430695 
	C470.033752,492.127930 472.636108,491.162506 474.310394,491.263153 
	C480.400299,491.629395 486.448029,492.650696 492.534576,493.140350 
	C495.060181,493.343536 496.423065,493.723358 497.509705,496.583374 
	C503.921753,513.459473 517.020386,522.313599 534.153564,525.996826 
	C543.810120,528.072632 553.269348,526.993103 562.626587,524.231689 
	C583.190063,518.163147 603.922974,512.607300 624.268127,505.878937 
	C642.014771,500.009888 655.020752,488.515503 660.347839,469.822235 
	C660.928162,467.785828 661.021545,465.610687 661.433472,462.886902 
	C668.877075,461.951141 676.585693,461.247437 684.196838,459.964966 
	C696.570801,457.880035 709.038757,456.037933 721.178650,452.956909 
	C736.728455,449.010498 747.528625,438.211304 756.641357,425.551636 
	C757.799561,423.942657 759.146606,422.469604 760.585327,420.715088 
	C762.453430,422.013367 764.188171,423.205078 765.908630,424.417084 
	C773.199158,429.553009 782.257446,428.097870 786.773010,421.059448 
	C791.534607,413.637512 789.232910,404.735779 780.802185,400.488434 
	C763.780823,391.913330 751.540039,378.968536 743.761658,361.668671 
	C743.558411,361.216431 743.261353,360.804779 743.074707,360.346954 
	C738.395691,348.872437 738.625000,348.050781 747.229797,339.284943 
	C753.292603,333.108582 759.187134,326.766815 765.149536,320.491974 
	C770.868713,314.473145 774.290710,307.294647 775.665894,298.159637 
	C782.457031,306.537048 786.647888,315.160980 788.926025,324.672607 
	C791.137085,333.904358 790.596252,343.173157 787.662781,352.152618 
	C785.590942,358.494537 786.802856,363.681549 791.037170,368.718964 
	C798.321289,377.384705 804.385437,386.845398 808.509033,398.240784 
	C814.613159,415.925018 815.313843,433.263824 811.610229,450.835052 
	C811.610229,450.835052 811.726196,450.896851 811.447754,451.085022 
	C810.676147,453.489441 810.182983,455.705719 809.689880,457.921997 
z"></path>
<path fill="#FEFEFF" opacity="1.000000" stroke="none" d="
M626.956421,555.607422 
	C636.123230,555.620117 644.907654,555.796936 653.690796,556.023804 
	C676.618225,556.616089 697.576294,550.742981 715.994324,536.820496 
	C718.667053,534.800110 720.738586,534.832153 723.922180,535.781921 
	C729.564758,537.465332 735.531128,538.125061 741.397278,538.967834 
	C743.809143,539.314270 746.312195,539.025208 749.057861,539.025208 
	C748.436096,549.370789 744.133179,557.678345 738.211060,565.143188 
	C725.010498,581.782349 707.448059,590.965637 686.636780,593.972290 
	C668.194946,596.636658 650.016663,595.123596 631.974915,590.290039 
	C618.868164,586.778687 611.385986,577.151978 603.412476,566.463928 
	C611.429688,562.770691 619.001587,559.282593 626.956421,555.607422 
z"></path>
<path fill="#FDFEFE" opacity="1.000000" stroke="none" d="
M342.836426,353.965820 
	C342.274933,354.417572 341.713470,354.869324 340.805481,355.688660 
	C340.269592,356.360504 340.080231,356.664795 339.890869,356.969086 
	C339.890869,356.969086 339.974518,356.974548 339.710632,357.022827 
	C339.247467,357.370972 339.048218,357.670868 338.848969,357.970764 
	C338.517517,357.990692 338.264893,358.142151 337.783752,358.752899 
	C337.283325,359.377533 337.090302,359.674408 336.897247,359.971252 
	C336.897247,359.971252 336.974915,359.977173 336.712646,360.020813 
	C336.260681,360.363617 336.070984,360.662781 335.881226,360.961914 
	C335.881226,360.961914 335.968903,360.968445 335.707214,361.014496 
	C335.257568,361.361176 335.069611,361.661774 334.881622,361.962402 
	C334.881622,361.962402 334.969177,361.969269 334.707489,362.014832 
	C334.257538,362.360779 334.069275,362.661194 333.881012,362.961578 
	C333.881012,362.961578 333.968628,362.969025 333.708588,363.016632 
	C333.258667,363.362823 333.068817,363.661407 332.878937,363.959991 
	C332.878937,363.959991 332.967316,363.967255 332.707428,364.015320 
	C332.258270,364.362396 332.068970,364.661377 331.879700,364.960327 
	C331.879730,364.960358 331.968292,364.968750 331.705475,365.017670 
	C331.239777,365.365082 331.036896,365.663605 330.834045,365.962128 
	C330.503784,365.976746 330.254089,366.126068 329.770874,366.736542 
	C329.254730,367.363525 329.052612,367.664032 328.850525,367.964539 
	C328.517853,367.980469 328.263428,368.129700 327.770386,368.739685 
	C327.248352,369.365570 327.043152,369.664032 326.837952,369.962494 
	C320.912872,375.112946 316.260193,382.216949 307.664825,383.368439 
	C303.002411,383.993073 298.242371,383.889130 293.526367,384.113831 
	C293.348694,383.642395 293.170990,383.170959 292.993317,382.699524 
	C297.233307,378.408417 301.791748,374.378143 305.597717,369.731537 
	C308.006592,366.790619 309.990936,363.105530 310.909485,359.439453 
	C312.092682,354.717102 310.783020,350.099731 306.290588,347.201050 
	C301.422729,344.060181 296.071167,343.709778 291.251221,346.697083 
	C287.362061,349.107513 284.009003,352.485138 280.730621,355.747742 
	C277.914093,358.550720 275.539795,361.798065 272.401672,364.396393 
	C269.196228,353.948425 272.314728,345.583923 279.154419,338.705505 
	C295.595642,322.171173 312.213806,305.808502 328.990692,289.614960 
	C333.695282,285.073975 339.769989,283.228638 346.840027,284.230316 
	C343.390442,290.419800 339.510468,296.795288 343.894135,303.686371 
	C345.891724,306.826569 349.120636,309.665131 352.443756,311.363098 
	C356.981171,313.681458 363.764282,311.684662 366.475586,306.930237 
	C368.946442,302.597534 369.802979,297.344177 371.288055,292.753143 
	C380.066589,301.515106 379.476410,316.131195 369.427307,326.812958 
	C368.059479,328.266907 366.597198,329.632019 364.778107,331.473938 
	C364.195343,332.255646 364.013153,332.601685 363.830933,332.947723 
	C363.830933,332.947723 363.951996,332.950409 363.679626,332.982300 
	C363.215271,333.320496 363.023315,333.626801 362.831360,333.933075 
	C362.831329,333.933075 362.944672,333.945862 362.679138,333.984100 
	C362.228821,334.331573 362.044098,334.640778 361.859344,334.950012 
	C361.859344,334.950012 361.958466,334.957886 361.695618,335.002869 
	C361.244476,335.350464 361.056213,335.653137 360.867981,335.955780 
	C360.867981,335.955780 360.963348,335.964569 360.699036,336.004944 
	C360.247375,336.349579 360.059998,336.653839 359.872589,336.958099 
	C359.872589,336.958099 359.966858,336.967712 359.699280,337.010742 
	C359.221954,337.353058 359.012146,337.652313 358.802338,337.951538 
	C357.269501,339.377869 355.736664,340.804199 353.822510,342.636414 
	C353.238861,343.350494 353.036469,343.658630 352.834106,343.966797 
	C352.508331,343.980743 352.257416,344.124969 351.737671,344.741272 
	C350.875183,345.709412 350.356415,346.335754 349.837646,346.962097 
	C348.953308,347.736084 348.068939,348.510071 346.822205,349.670532 
	C346.269104,350.360138 346.078369,350.663300 345.887634,350.966431 
	C345.887634,350.966431 345.972412,350.971893 345.711151,351.022888 
	C345.250763,351.371674 345.051605,351.669525 344.852478,351.967346 
	C344.520569,351.979980 344.266418,352.127014 343.773865,352.738098 
	C343.250641,353.367096 343.043518,353.666443 342.836426,353.965820 
z"></path>
<path fill="#FDFEFE" opacity="1.000000" stroke="none" d="
M699.124756,286.462280 
	C702.483032,297.018677 708.905701,300.991119 717.221924,298.117004 
	C722.449524,296.310272 725.323425,292.661072 726.074036,287.264557 
	C727.138672,279.609344 728.168335,271.949280 729.362427,263.195099 
	C735.323425,266.521912 740.851013,268.880585 745.512451,272.389771 
	C751.509949,276.904755 752.471313,284.045074 750.252197,290.481110 
	C747.992920,297.033783 744.777893,303.842682 740.174316,308.891846 
	C726.157837,324.265167 711.441467,339.016998 696.664185,353.674561 
	C685.635742,364.613647 669.728455,366.080139 658.640137,357.848450 
	C657.714661,357.161438 656.835632,356.412018 655.362488,355.233582 
	C660.991821,353.449707 665.897217,352.162720 670.592590,350.335968 
	C675.839478,348.294586 679.139221,343.062988 679.016663,337.938049 
	C678.893188,332.776093 674.969910,327.121796 669.621887,325.709015 
	C666.740234,324.947754 663.414429,325.228027 660.409729,325.742889 
	C657.072083,326.314789 653.871826,327.688782 650.524109,328.741089 
	C652.624878,319.211182 687.635986,283.286652 699.054565,279.149628 
	C699.054565,281.560944 699.054565,283.806335 699.124756,286.462280 
z"></path>
<path fill="#FDFEFE" opacity="1.000000" stroke="none" d="
M605.029114,429.949768 
	C615.119751,427.356384 625.405029,430.864502 629.983826,438.417542 
	C624.421631,439.238770 618.847107,439.657501 613.483032,440.949646 
	C605.677063,442.829895 601.388245,450.169922 603.145935,457.612366 
	C604.809814,464.657532 612.582275,469.034943 620.266174,467.373596 
	C624.752930,466.403503 629.282959,465.633575 634.687439,464.603210 
	C630.798706,472.576965 625.336731,477.529694 617.841431,479.897430 
	C602.457031,484.757233 586.998535,489.387756 571.523376,493.952820 
	C563.937439,496.190582 556.303345,498.327942 548.588013,500.048767 
	C538.602295,502.275879 530.338379,498.969818 523.381958,490.283997 
	C527.898682,489.497620 532.164062,488.728149 536.438965,488.016418 
	C544.762634,486.630615 549.591675,479.639099 547.961487,471.287323 
	C546.590088,464.261475 539.096497,459.864838 531.429504,461.526428 
	C528.601624,462.139282 525.740601,462.598846 522.143860,463.267975 
	C526.130798,456.402649 530.780151,451.869812 537.765503,449.824432 
	C560.067627,443.294128 582.327820,436.620819 605.029114,429.949768 
z"></path>
<path fill="#097DD4" opacity="1.000000" stroke="none" d="
M811.980652,450.682312 
	C815.313843,433.263824 814.613159,415.925018 808.779541,398.461395 
	C810.416321,403.114807 812.807800,408.040436 813.731628,413.227509 
	C815.951294,425.690063 815.881714,438.210327 811.980652,450.682312 
z"></path>
<path fill="#0176D3" opacity="1.000000" stroke="none" d="
M479.923828,242.140625 
	C479.870148,222.852615 479.870514,203.959061 479.891266,184.607086 
	C480.273651,184.586624 480.951141,185.023773 480.952301,185.462708 
	C481.004517,205.549698 480.997589,225.636841 480.300476,245.783112 
	C480.192963,244.700439 480.085419,243.617783 479.923828,242.140625 
z"></path>
<path fill="#097DD4" opacity="1.000000" stroke="none" d="
M409.232544,378.859680 
	C416.232788,378.215302 423.676422,377.261536 431.131836,377.158844 
	C440.443787,377.030548 449.765442,377.602661 459.523499,377.866272 
	C453.852478,378.570160 447.621887,380.388092 441.655304,379.747314 
	C430.968475,378.599548 420.399567,377.206207 409.232544,378.859680 
z"></path>
<path fill="#097DD4" opacity="1.000000" stroke="none" d="
M443.346069,545.439697 
	C454.053467,544.091492 465.082520,543.000671 476.538818,541.887451 
	C471.142975,543.236450 465.380981,545.111267 459.478333,545.827881 
	C454.289886,546.457825 448.944031,545.791138 443.346069,545.439697 
z"></path>
<path fill="#097DD4" opacity="1.000000" stroke="none" d="
M477.318451,541.943359 
	C483.840698,540.021179 490.718567,537.655212 497.794159,536.447998 
	C500.660217,535.958923 503.957458,537.996765 507.220337,539.181152 
	C499.893066,536.775146 492.666382,538.050110 485.418152,540.647705 
	C483.014618,541.509094 480.316833,541.549500 477.318451,541.943359 
z"></path>
<path fill="#097DD4" opacity="1.000000" stroke="none" d="
M429.145569,544.622437 
	C432.732086,544.505798 436.419861,544.760864 440.549622,545.092712 
	C437.076691,545.111023 433.161774,545.052551 429.145569,544.622437 
z"></path>
<path fill="#097DD4" opacity="1.000000" stroke="none" d="
M400.334717,381.976318 
	C402.666107,380.910675 405.388824,379.846527 408.497559,378.730621 
	C406.164398,379.778534 403.445221,380.878174 400.334717,381.976318 
z"></path>
<path fill="#097DD4" opacity="1.000000" stroke="none" d="
M460.291016,377.938385 
	C462.043030,377.045227 464.206512,376.176117 466.676422,375.118103 
	C464.889435,375.940247 462.795990,376.951355 460.291016,377.938385 
z"></path>
<path fill="#097DD4" opacity="1.000000" stroke="none" d="
M810.030518,457.759003 
	C810.182983,455.705719 810.676147,453.489441 811.442261,451.019531 
	C811.267273,453.042572 810.819275,455.319305 810.030518,457.759003 
z"></path>
<path fill="#097DD4" opacity="1.000000" stroke="none" d="
M509.035614,541.344360 
	C509.753662,541.961426 510.506134,542.926575 511.379883,544.161499 
	C510.690826,543.518250 509.880432,542.605286 509.035614,541.344360 
z"></path>
<path fill="#097DD4" opacity="1.000000" stroke="none" d="
M350.187561,346.934540 
	C350.356415,346.335754 350.875183,345.709412 351.676300,344.956970 
	C351.484894,345.522888 351.011169,346.214935 350.187561,346.934540 
z"></path>
<path fill="#097DD4" opacity="1.000000" stroke="none" d="
M507.523193,539.820679 
	C508.037750,539.831787 508.452789,540.153748 508.935486,540.737305 
	C508.476624,540.709839 507.950134,540.420715 507.523193,539.820679 
z"></path>
<path fill="#097DD4" opacity="1.000000" stroke="none" d="
M398.142334,382.939728 
	C398.330231,382.625031 398.841156,382.306580 399.672607,381.967468 
	C399.483856,382.276550 398.974609,382.606262 398.142334,382.939728 
z"></path>
<path fill="#097DD4" opacity="1.000000" stroke="none" d="
M360.125244,336.859070 
	C360.059998,336.653839 360.247375,336.349579 360.695465,335.957214 
	C360.763428,336.166077 360.570679,336.463074 360.125244,336.859070 
z"></path>
<path fill="#097DD4" opacity="1.000000" stroke="none" d="
M511.413605,544.956238 
	C511.673889,544.906494 511.906036,545.154419 512.231445,545.659546 
	C512.011597,545.695801 511.698517,545.474915 511.413605,544.956238 
z"></path>
<path fill="#097DD4" opacity="1.000000" stroke="none" d="
M364.106873,332.819000 
	C364.013153,332.601685 364.195343,332.255646 364.637604,331.763916 
	C364.726013,331.975586 364.554382,332.332947 364.106873,332.819000 
z"></path>
<path fill="#097DD4" opacity="1.000000" stroke="none" d="
M363.093658,333.840881 
	C363.023315,333.626801 363.215271,333.320496 363.670227,332.922485 
	C363.740784,333.136749 363.548370,333.442719 363.093658,333.840881 
z"></path>
<path fill="#097DD4" opacity="1.000000" stroke="none" d="
M362.115509,334.849548 
	C362.044098,334.640778 362.228821,334.331573 362.673401,333.927368 
	C362.746033,334.137939 362.558868,334.443542 362.115509,334.849548 
z"></path>
<path fill="#097DD4" opacity="1.000000" stroke="none" d="
M327.096191,369.859314 
	C327.043152,369.664032 327.248352,369.365570 327.709015,368.960022 
	C327.761108,369.153961 327.557800,369.455017 327.096191,369.859314 
z"></path>
<path fill="#097DD4" opacity="1.000000" stroke="none" d="
M329.107239,367.858826 
	C329.052612,367.664032 329.254730,367.363525 329.711761,366.954651 
	C329.765778,367.148590 329.564880,367.450836 329.107239,367.858826 
z"></path>
<path fill="#097DD4" opacity="1.000000" stroke="none" d="
M361.122253,335.857300 
	C361.056213,335.653137 361.244476,335.350464 361.690308,334.953430 
	C361.757446,335.158936 361.566956,335.458893 361.122253,335.857300 
z"></path>
<path fill="#097DD4" opacity="1.000000" stroke="none" d="
M331.091675,365.864807 
	C331.036896,365.663605 331.239777,365.365082 331.702759,364.973267 
	C331.758362,365.175812 331.553833,365.471649 331.091675,365.864807 
z"></path>
<path fill="#097DD4" opacity="1.000000" stroke="none" d="
M332.130219,364.860840 
	C332.068970,364.661377 332.258270,364.362396 332.703796,363.971130 
	C332.766968,364.173035 332.573853,364.467194 332.130219,364.860840 
z"></path>
<path fill="#097DD4" opacity="1.000000" stroke="none" d="
M335.132324,361.863159 
	C335.069611,361.661774 335.257568,361.361176 335.703552,360.970703 
	C335.768677,361.175201 335.575836,361.469574 335.132324,361.863159 
z"></path>
<path fill="#097DD4" opacity="1.000000" stroke="none" d="
M359.066681,337.859833 
	C359.012146,337.652313 359.221954,337.353058 359.696869,336.963440 
	C359.751678,337.171417 359.541351,337.469788 359.066681,337.859833 
z"></path>
<path fill="#097DD4" opacity="1.000000" stroke="none" d="
M353.096741,343.858765 
	C353.036469,343.658630 353.238861,343.350494 353.697266,342.926758 
	C353.755280,343.124359 353.557312,343.437561 353.096741,343.858765 
z"></path>
<path fill="#097DD4" opacity="1.000000" stroke="none" d="
M333.129578,363.860962 
	C333.068817,363.661407 333.258667,363.362823 333.705414,362.972778 
	C333.768250,363.174835 333.574219,363.468384 333.129578,363.860962 
z"></path>
<path fill="#097DD4" opacity="1.000000" stroke="none" d="
M346.139801,350.857300 
	C346.078369,350.663300 346.269104,350.360138 346.712524,349.946960 
	C346.774109,350.140656 346.583038,350.444427 346.139801,350.857300 
z"></path>
<path fill="#097DD4" opacity="1.000000" stroke="none" d="
M345.106567,351.868164 
	C345.051605,351.669525 345.250763,351.371674 345.707703,350.980530 
	C345.763947,351.181122 345.562317,351.475037 345.106567,351.868164 
z"></path>
<path fill="#097DD4" opacity="1.000000" stroke="none" d="
M343.097412,353.863220 
	C343.043518,353.666443 343.250641,353.367096 343.713013,352.957611 
	C343.765015,353.151886 343.561737,353.456268 343.097412,353.863220 
z"></path>
<path fill="#097DD4" opacity="1.000000" stroke="none" d="
M334.131897,362.862854 
	C334.069275,362.661194 334.257538,362.360779 334.704102,361.971008 
	C334.769196,362.175842 334.575989,362.469971 334.131897,362.862854 
z"></path>
<path fill="#097DD4" opacity="1.000000" stroke="none" d="
M340.143311,356.860718 
	C340.080231,356.664795 340.269592,356.360504 340.712524,355.947906 
	C340.775970,356.143829 340.585876,356.448090 340.143311,356.860718 
z"></path>
<path fill="#097DD4" opacity="1.000000" stroke="none" d="
M339.104340,357.872253 
	C339.048218,357.670868 339.247467,357.370972 339.707733,356.981018 
	C339.765747,357.185211 339.562744,357.479462 339.104340,357.872253 
z"></path>
<path fill="#097DD4" opacity="1.000000" stroke="none" d="
M337.145630,359.863495 
	C337.090302,359.674408 337.283325,359.377533 337.725800,358.973663 
	C337.781525,359.162994 337.587769,359.459381 337.145630,359.863495 
z"></path>
<path fill="#097DD4" opacity="1.000000" stroke="none" d="
M336.130249,360.863831 
	C336.070984,360.662781 336.260681,360.363617 336.710358,359.981934 
	C336.773285,360.188171 336.576294,360.476959 336.130249,360.863831 
z"></path>
<path fill="#FBFDFE" opacity="1.000000" stroke="none" d="
M827.630554,822.589661 
	C826.900879,823.686890 826.009094,824.976318 825.081360,825.002747 
	C818.766968,825.182800 812.445007,825.096985 805.457703,825.096985 
	C809.174500,812.283508 812.790161,799.818848 816.703308,786.328247 
	C820.468079,798.891846 823.959961,810.544678 827.630554,822.589661 
z"></path>
<path fill="#FBFDFE" opacity="1.000000" stroke="none" d="
M604.068542,847.263916 
	C601.274841,848.289490 598.827515,849.514038 596.283264,849.768188 
	C591.777893,850.218384 588.170776,848.480164 586.560303,843.874084 
	C585.224304,840.052856 587.189819,834.856567 591.602478,833.266846 
	C596.929565,831.347595 602.658264,830.543335 609.166931,829.035522 
	C608.495911,836.158203 611.373657,842.779907 604.068542,847.263916 
z"></path>
<path fill="#FBFDFE" opacity="1.000000" stroke="none" d="
M254.967697,821.998169 
	C254.033997,809.494690 264.773102,800.271301 274.667725,805.288574 
	C280.977539,808.488159 282.035217,814.570129 281.512634,821.435913 
	C272.348755,821.938599 263.658234,821.968384 254.967697,821.998169 
z"></path>
<path fill="#0176D3" opacity="1.000000" stroke="none" d="
M255.262543,822.299988 
	C263.658234,821.968384 272.348755,821.938599 281.503845,821.857300 
	C280.623199,822.205505 279.277313,822.950317 277.932922,822.947632 
	C270.474213,822.932739 263.015839,822.736206 255.262543,822.299988 
z"></path>
<path fill="#0098DE" opacity="1.000000" stroke="none" d="
M868.000000,814.000000 
	C867.998901,801.186523 868.095154,788.871826 867.933228,776.560486 
	C867.888794,773.180786 868.791748,771.927673 872.386047,771.924072 
	C883.009949,771.913391 883.009644,771.758545 883.009827,782.310547 
	C883.010193,806.271912 882.907043,830.234070 883.104431,854.193787 
	C883.140991,858.633911 882.135010,860.300293 877.362305,860.114319 
	C868.010864,859.749939 868.000000,860.030579 868.000000,850.442017 
	C868.000061,838.461365 868.000000,826.480652 868.000000,814.000000 
z"></path>
</svg><style>@media (prefers-color-scheme: light) { :root { filter: none; } }
@media (prefers-color-scheme: dark) { :root { filter: none; } }
</style></svg>