<?xml version="1.0" encoding="UTF-8"?>
<svg xmlns="http://www.w3.org/2000/svg" xmlns:xlink="http://www.w3.org/1999/xlink" width="32px" height="29px" viewBox="0 0 31 29" version="1.1">
<g id="surface1">
<path style=" stroke:none;fill-rule:nonzero;fill:rgb(99.607843%,100%,100%);fill-opacity:1;" d="M 17.230469 29.046875 C 11.488281 29.046875 5.765625 29.046875 0.046875 29.046875 C 0.046875 19.378906 0.046875 9.714844 0.046875 0.046875 C 10.378906 0.046875 20.710938 0.046875 31.046875 0.046875 C 31.046875 9.714844 31.046875 19.378906 31.046875 29.046875 C 26.449219 29.046875 21.851562 29.046875 17.230469 29.046875 M 18.871094 23.589844 C 18.9375 23.1875 19.007812 22.78125 19.078125 22.375 C 19.359375 20.761719 19.640625 19.148438 19.921875 17.535156 C 20.128906 16.320312 20.335938 15.105469 20.546875 13.894531 C 20.734375 12.804688 20.917969 11.714844 21.109375 10.628906 C 21.214844 10.007812 21.328125 9.386719 21.4375 8.769531 C 21.289062 11.703125 21.25 14.632812 21.308594 17.566406 C 21.367188 20.5 21.425781 23.4375 21.488281 26.371094 C 23.769531 26.371094 26.03125 26.371094 28.308594 26.371094 C 27.75 18.355469 27.191406 10.351562 26.632812 2.351562 C 23.753906 2.351562 20.90625 2.351562 18.054688 2.351562 C 17.257812 7.480469 16.457031 12.601562 15.660156 17.71875 C 15.644531 17.71875 15.628906 17.71875 15.613281 17.71875 C 14.730469 12.59375 13.84375 7.472656 12.957031 2.347656 C 10.097656 2.347656 7.265625 2.347656 4.414062 2.347656 C 3.855469 10.359375 3.296875 18.363281 2.738281 26.363281 C 5.027344 26.363281 7.292969 26.363281 9.566406 26.363281 C 9.585938 25.074219 9.605469 23.800781 9.632812 22.53125 C 9.695312 19.53125 9.792969 16.53125 9.660156 13.53125 C 9.609375 12.351562 9.523438 11.167969 9.449219 9.988281 C 9.417969 9.523438 9.378906 9.058594 9.34375 8.59375 C 9.394531 8.675781 9.417969 8.765625 9.4375 8.855469 C 9.636719 9.957031 9.835938 11.054688 10.042969 12.15625 C 10.355469 13.84375 10.671875 15.53125 10.984375 17.21875 C 11.390625 19.394531 11.800781 21.566406 12.199219 23.742188 C 12.234375 23.9375 12.304688 23.972656 12.476562 23.972656 C 14.46875 23.964844 16.457031 23.96875 18.449219 23.96875 C 18.789062 23.96875 18.789062 23.96875 18.871094 23.589844 Z M 18.871094 23.589844 "/>
<path style=" stroke:none;fill-rule:nonzero;fill:rgb(0%,61.960787%,87.058824%);fill-opacity:1;" d="M 18.867188 23.613281 C 18.789062 23.96875 18.789062 23.96875 18.449219 23.96875 C 16.457031 23.96875 14.46875 23.964844 12.476562 23.972656 C 12.304688 23.972656 12.234375 23.9375 12.199219 23.742188 C 11.800781 21.566406 11.390625 19.394531 10.984375 17.21875 C 10.671875 15.53125 10.355469 13.84375 10.042969 12.15625 C 9.835938 11.054688 9.636719 9.957031 9.4375 8.855469 C 9.417969 8.765625 9.394531 8.675781 9.34375 8.59375 C 9.378906 9.058594 9.417969 9.523438 9.449219 9.988281 C 9.523438 11.167969 9.609375 12.351562 9.660156 13.53125 C 9.792969 16.53125 9.695312 19.53125 9.632812 22.53125 C 9.605469 23.800781 9.585938 25.074219 9.566406 26.363281 C 7.292969 26.363281 5.027344 26.363281 2.738281 26.363281 C 3.296875 18.363281 3.855469 10.359375 4.414062 2.347656 C 7.265625 2.347656 10.097656 2.347656 12.957031 2.347656 C 13.84375 7.472656 14.730469 12.59375 15.613281 17.71875 C 15.628906 17.71875 15.644531 17.71875 15.660156 17.71875 C 16.457031 12.601562 17.257812 7.480469 18.054688 2.351562 C 20.90625 2.351562 23.753906 2.351562 26.632812 2.351562 C 27.191406 10.351562 27.75 18.355469 28.308594 26.371094 C 26.03125 26.371094 23.769531 26.371094 21.488281 26.371094 C 21.425781 23.4375 21.367188 20.5 21.308594 17.566406 C 21.25 14.632812 21.289062 11.703125 21.4375 8.769531 C 21.328125 9.386719 21.214844 10.007812 21.109375 10.628906 C 20.917969 11.714844 20.734375 12.804688 20.546875 13.894531 C 20.335938 15.105469 20.128906 16.320312 19.921875 17.535156 C 19.640625 19.148438 19.359375 20.761719 19.078125 22.375 C 19.007812 22.78125 18.9375 23.1875 18.867188 23.613281 Z M 18.867188 23.613281 "/>
</g>
</svg>
