<?xml version="1.0" encoding="iso-8859-1"?>
<!-- Uploaded to: SVG Repo, www.svgrepo.com, Generator: SVG Repo Mixer Tools -->
<!DOCTYPE svg PUBLIC "-//W3C//DTD SVG 1.1//EN" "http://www.w3.org/Graphics/SVG/1.1/DTD/svg11.dtd">
<svg fill="#000000" version="1.1" id="Capa_1" xmlns="http://www.w3.org/2000/svg" xmlns:xlink="http://www.w3.org/1999/xlink" 
	 width="800px" height="800px" viewBox="0 0 461.773 461.773"
	 xml:space="preserve">
<g>
	<g>
		<path d="M433.566,117.513c0-22.172-17.973-40.145-40.145-40.145H40.145C17.973,77.368,0,95.341,0,117.513v35.154h433.566V117.513z
			"/>
		<path d="M444.242,238.124c-3.641-0.561-7.207-1.443-10.676-2.566v-40.253H0v121.787c0,22.172,17.973,40.146,40.145,40.146h293.996
			c11.559,11.557,22.525,19.579,28.582,23.651c3.422,2.301,7.41,3.518,11.535,3.518c4.123,0,8.111-1.217,11.533-3.518
			c7.205-4.846,21.359-15.264,35.195-30.598c24.271-26.904,37.971-57.189,40.715-90.012
			C462.604,249.499,454.934,239.767,444.242,238.124z M152.746,302.854c0,2.992-2.426,5.418-5.418,5.418H63.772
			c-2.992,0-5.42-2.426-5.42-5.418v-16.485c0-2.994,2.428-5.42,5.42-5.42h83.557c2.992,0,5.418,2.426,5.418,5.42L152.746,302.854
			L152.746,302.854z M403.934,334.906c-11.412,12.647-23.045,21.481-29.676,26.051c-6.633-4.567-18.264-13.401-29.676-26.051
			c-20.301-22.502-31.963-47.535-34.688-74.437c28.344-5.102,51.855-24.078,64.363-36.147
			c12.508,12.069,36.018,31.047,64.361,36.147C435.895,287.37,424.232,312.404,403.934,334.906z"/>
		<path d="M324.766,269.115c0.855,8.431,2.869,16.614,5.99,24.532h43.406v-52.252C364.535,250.675,346.5,265.203,324.766,269.115z"
			/>
		<path d="M374.162,346.29c0.021,0.014,0.043,0.029,0.062,0.043c5.096-3.51,14.035-10.298,22.805-20.018
			c9.238-10.24,16.129-21.168,20.664-32.668h-43.529v52.643H374.162z"/>
	</g>
</g>
</svg>